<svg xmlns="http://www.w3.org/2000/svg" xmlns:xlink="http://www.w3.org/1999/xlink" width="256" zoomAndPan="magnify" viewBox="0 0 192 191.999996" height="256" preserveAspectRatio="xMidYMid meet" version="1.0"><defs><clipPath id="8b51537554"><path d="M 19.199219 19.199219 L 172.949219 19.199219 L 172.949219 172.949219 L 19.199219 172.949219 Z M 19.199219 19.199219 " clip-rule="nonzero"/></clipPath></defs><g clip-path="url(#8b51537554)"><path fill="#000000" d="M 36.285156 19.199219 C 31.824219 19.199219 27.273438 20.835938 24.054688 24.054688 C 20.835938 27.273438 19.199219 31.824219 19.199219 36.285156 L 19.199219 70.449219 L 36.285156 70.449219 L 36.285156 36.285156 L 70.449219 36.285156 L 70.449219 19.199219 Z M 121.699219 19.199219 L 121.699219 36.285156 L 155.867188 36.285156 L 155.867188 70.449219 L 172.949219 70.449219 L 172.949219 36.285156 C 172.949219 31.824219 171.316406 27.273438 168.09375 24.054688 C 164.875 20.835938 160.328125 19.199219 155.867188 19.199219 Z M 19.199219 121.699219 L 19.199219 155.867188 C 19.199219 160.328125 20.835938 164.875 24.054688 168.09375 C 27.273438 171.316406 31.824219 172.949219 36.285156 172.949219 L 70.449219 172.949219 L 70.449219 155.867188 L 36.285156 155.867188 L 36.285156 121.699219 Z M 155.867188 121.699219 L 155.867188 155.867188 L 121.699219 155.867188 L 121.699219 172.949219 L 155.867188 172.949219 C 160.328125 172.949219 164.875 171.316406 168.09375 168.09375 C 171.316406 164.875 172.949219 160.328125 172.949219 155.867188 L 172.949219 121.699219 Z M 155.867188 121.699219 " fill-opacity="1" fill-rule="nonzero"/></g></svg>