<svg xmlns="http://www.w3.org/2000/svg" xmlns:xlink="http://www.w3.org/1999/xlink" width="256" zoomAndPan="magnify" viewBox="0 0 192 191.999996" height="256" preserveAspectRatio="xMidYMid meet" version="1.0"><defs><clipPath id="4566475246"><path d="M 26 25 L 172.949219 25 L 172.949219 172.585938 L 26 172.585938 Z M 26 25 " clip-rule="nonzero"/></clipPath><clipPath id="8c932d6a0f"><path d="M 19.199219 19.585938 L 167 19.585938 L 167 167 L 19.199219 167 Z M 19.199219 19.585938 " clip-rule="nonzero"/></clipPath></defs><g clip-path="url(#4566475246)"><path fill="#462d0f" d="M 31.757812 25.730469 L 167.222656 25.730469 C 170.347656 25.730469 172.90625 28.289062 172.90625 31.414062 L 172.90625 166.902344 C 172.90625 170.027344 170.347656 172.585938 167.222656 172.585938 L 31.757812 172.585938 C 28.628906 172.585938 26.074219 170.027344 26.074219 166.902344 L 26.074219 31.414062 C 26.074219 28.289062 28.628906 25.730469 31.757812 25.730469 Z M 31.757812 25.730469 " fill-opacity="1" fill-rule="evenodd"/></g><g clip-path="url(#8c932d6a0f)"><path fill="#cd9a00" d="M 24.929688 19.585938 L 160.394531 19.585938 C 163.519531 19.585938 166.078125 22.140625 166.078125 25.269531 L 166.078125 160.753906 C 166.078125 163.882812 163.519531 166.441406 160.394531 166.441406 L 24.929688 166.441406 C 21.800781 166.441406 19.246094 163.882812 19.246094 160.753906 L 19.246094 25.269531 C 19.246094 22.140625 21.800781 19.585938 24.929688 19.585938 Z M 24.929688 19.585938 " fill-opacity="1" fill-rule="evenodd"/></g><path fill="#ffcc00" d="M 28.132812 22.421875 L 163.597656 22.421875 C 166.726562 22.421875 169.28125 24.980469 169.28125 28.105469 L 169.28125 163.59375 C 169.28125 166.71875 166.726562 169.277344 163.597656 169.277344 L 28.132812 169.277344 C 25.007812 169.277344 22.449219 166.71875 22.449219 163.59375 L 22.449219 28.105469 C 22.449219 24.980469 25.007812 22.421875 28.132812 22.421875 Z M 28.132812 22.421875 " fill-opacity="1" fill-rule="evenodd"/><path fill="#e8b600" d="M 169.28125 135.964844 L 169.28125 163.59375 C 169.28125 166.71875 166.726562 169.277344 163.597656 169.277344 L 124.023438 169.277344 Z M 169.28125 135.964844 " fill-opacity="1" fill-rule="evenodd"/><path fill="#e8b600" d="M 169.28125 114.285156 L 169.28125 132.121094 L 118.796875 169.277344 L 94.566406 169.277344 Z M 169.28125 114.285156 " fill-opacity="1" fill-rule="evenodd"/><path fill="#ffdf13" d="M 86.429688 22.421875 L 104.515625 22.421875 L 22.449219 82.824219 L 22.449219 69.511719 Z M 113.164062 22.421875 L 22.449219 89.1875 L 22.449219 121.019531 L 156.410156 22.421875 Z M 113.164062 22.421875 " fill-opacity="1" fill-rule="evenodd"/><path fill="#462d0f" d="M 30.339844 27.054688 L 38.128906 27.054688 L 38.128906 29.523438 L 40.597656 29.523438 L 40.597656 37.3125 L 38.128906 37.3125 L 38.128906 39.785156 L 30.339844 39.785156 L 30.339844 37.3125 L 27.871094 37.3125 L 27.871094 29.523438 L 30.339844 29.523438 Z M 30.339844 27.054688 " fill-opacity="1" fill-rule="evenodd"/><path fill="#462d0f" d="M 153.605469 27.054688 L 161.394531 27.054688 L 161.394531 29.523438 L 163.863281 29.523438 L 163.863281 37.3125 L 161.394531 37.3125 L 161.394531 39.785156 L 153.605469 39.785156 L 153.605469 37.3125 L 151.136719 37.3125 L 151.136719 29.523438 L 153.605469 29.523438 Z M 153.605469 27.054688 " fill-opacity="1" fill-rule="evenodd"/><path fill="#462d0f" d="M 153.605469 151.917969 L 161.394531 151.917969 L 161.394531 154.386719 L 163.863281 154.386719 L 163.863281 162.175781 L 161.394531 162.175781 L 161.394531 164.644531 L 153.605469 164.644531 L 153.605469 162.175781 L 151.136719 162.175781 L 151.136719 154.386719 L 153.605469 154.386719 Z M 153.605469 151.917969 " fill-opacity="1" fill-rule="evenodd"/><path fill="#462d0f" d="M 30.339844 151.917969 L 38.128906 151.917969 L 38.128906 154.386719 L 40.597656 154.386719 L 40.597656 162.175781 L 38.128906 162.175781 L 38.128906 164.644531 L 30.339844 164.644531 L 30.339844 162.175781 L 27.871094 162.175781 L 27.871094 154.386719 L 30.339844 154.386719 Z M 30.339844 151.917969 " fill-opacity="1" fill-rule="evenodd"/><path fill="#462d0f" d="M 132.433594 56.402344 L 132.433594 55.5 L 133.332031 55.5 C 134.449219 55.5 135.605469 55.5 136.71875 55.5 L 137.621094 55.5 L 137.621094 56.402344 C 137.621094 60.863281 137.621094 65.324219 137.621094 69.785156 C 137.621094 70.214844 137.621094 70.644531 137.621094 71.117188 C 138.050781 71.117188 138.480469 71.117188 138.949219 71.117188 C 143.453125 71.117188 145.167969 71.117188 149.667969 71.117188 L 150.527344 71.117188 L 150.527344 71.976562 C 150.527344 72.53125 150.527344 73.132812 150.527344 73.691406 C 150.527344 74.25 150.527344 74.851562 150.527344 75.40625 L 150.527344 76.265625 L 149.667969 76.265625 C 143.835938 76.265625 140.835938 76.265625 135.003906 76.265625 C 134.449219 76.265625 133.890625 76.265625 133.332031 76.265625 L 132.433594 76.265625 L 132.433594 75.40625 C 132.433594 69.058594 132.433594 62.707031 132.433594 56.402344 Z M 114.125 68.542969 C 114.125 68.972656 114.125 69.402344 114.125 69.828125 C 114.125 70.257812 114.125 70.730469 114.125 71.160156 C 114.554688 71.160156 115.027344 71.160156 115.453125 71.160156 C 119.957031 71.160156 124.457031 71.160156 129.003906 71.160156 L 129.859375 71.160156 L 129.859375 72.019531 C 129.859375 73.175781 129.859375 74.335938 129.859375 75.449219 L 129.859375 76.308594 L 129.003906 76.308594 C 124.457031 76.308594 119.957031 76.308594 115.453125 76.308594 C 114.898438 76.308594 114.296875 76.308594 113.738281 76.308594 L 112.882812 76.308594 C 112.882812 75.019531 112.882812 73.734375 112.882812 72.402344 C 111.851562 72.402344 110.824219 72.402344 109.796875 72.402344 L 108.9375 72.402344 C 108.9375 68.371094 108.9375 64.339844 108.9375 60.304688 L 108.9375 59.449219 L 109.796875 59.449219 C 110.394531 59.449219 110.953125 59.449219 111.511719 59.449219 C 111.980469 59.449219 112.410156 59.449219 112.882812 59.449219 C 112.882812 59.019531 112.882812 58.589844 112.882812 58.160156 C 112.882812 57.601562 112.882812 57.003906 112.882812 56.445312 L 112.882812 55.585938 L 113.738281 55.585938 C 118.839844 55.585938 123.902344 55.585938 129.003906 55.585938 L 129.859375 55.585938 L 129.859375 56.445312 C 129.859375 57.601562 129.859375 58.71875 129.859375 59.875 L 129.859375 60.734375 L 129.003906 60.734375 C 124.457031 60.734375 119.957031 60.734375 115.453125 60.734375 C 115.027344 60.734375 114.554688 60.734375 114.125 60.734375 C 114.125 61.164062 114.125 61.636719 114.125 62.066406 C 114.125 62.492188 114.125 62.921875 114.125 63.351562 C 114.554688 63.351562 115.027344 63.351562 115.453125 63.351562 C 117.339844 63.351562 119.226562 63.351562 121.113281 63.351562 L 121.972656 63.351562 L 121.972656 64.210938 C 121.972656 64.765625 121.972656 65.367188 121.972656 65.925781 C 121.972656 66.527344 121.972656 67.085938 121.972656 67.640625 L 121.972656 68.542969 L 121.113281 68.542969 C 119.226562 68.542969 117.339844 68.542969 115.453125 68.542969 C 115.027344 68.542969 114.554688 68.542969 114.125 68.542969 Z M 85.65625 56.402344 L 85.65625 55.542969 L 86.515625 55.542969 C 87.671875 55.542969 88.785156 55.542969 89.945312 55.542969 L 90.800781 55.542969 L 90.800781 56.402344 C 90.800781 60.003906 90.800781 63.609375 90.800781 67.210938 C 91.832031 67.210938 92.859375 67.210938 93.890625 67.210938 L 94.746094 67.210938 L 94.746094 68.070312 C 94.746094 69.101562 94.746094 70.128906 94.746094 71.117188 C 95.648438 71.117188 96.503906 71.117188 97.40625 71.117188 C 97.40625 70.128906 97.40625 69.101562 97.40625 68.070312 L 97.40625 67.210938 L 98.261719 67.210938 C 99.292969 67.210938 100.320312 67.210938 101.347656 67.210938 C 101.347656 63.609375 101.347656 60.003906 101.347656 56.402344 L 101.347656 55.542969 L 102.207031 55.542969 C 103.363281 55.542969 104.523438 55.542969 105.679688 55.542969 L 106.535156 55.542969 L 106.535156 56.402344 C 106.535156 60.132812 106.535156 63.910156 106.535156 67.640625 L 106.535156 68.5 L 105.679688 68.5 C 104.648438 68.5 103.621094 68.5 102.59375 68.5 C 102.59375 68.929688 102.59375 69.359375 102.59375 69.828125 C 102.59375 70.386719 102.59375 70.945312 102.59375 71.546875 L 102.59375 72.402344 L 101.734375 72.402344 C 101.175781 72.402344 100.578125 72.402344 100.019531 72.402344 C 99.546875 72.402344 99.121094 72.402344 98.648438 72.402344 C 98.648438 73.433594 98.648438 74.421875 98.648438 75.449219 L 98.648438 76.308594 L 97.789062 76.308594 C 96.632812 76.308594 95.519531 76.308594 94.359375 76.308594 L 93.503906 76.308594 L 93.503906 75.449219 C 93.503906 74.421875 93.503906 73.433594 93.503906 72.402344 C 92.472656 72.402344 91.445312 72.402344 90.414062 72.402344 L 89.558594 72.402344 L 89.558594 71.546875 C 89.558594 70.515625 89.558594 69.53125 89.558594 68.5 C 88.53125 68.5 87.542969 68.5 86.515625 68.5 L 85.65625 68.5 L 85.65625 67.640625 C 85.65625 63.910156 85.65625 60.132812 85.65625 56.402344 Z M 67.390625 68.542969 C 67.390625 68.972656 67.390625 69.402344 67.390625 69.828125 C 67.390625 70.257812 67.390625 70.730469 67.390625 71.160156 C 67.820312 71.160156 68.25 71.160156 68.722656 71.160156 C 73.222656 71.160156 77.726562 71.160156 82.226562 71.160156 L 83.085938 71.160156 L 83.085938 72.019531 C 83.085938 73.175781 83.085938 74.335938 83.085938 75.449219 L 83.085938 76.308594 L 82.226562 76.308594 C 77.726562 76.308594 73.222656 76.308594 68.722656 76.308594 C 68.121094 76.308594 67.5625 76.308594 67.007812 76.308594 L 66.148438 76.308594 L 66.148438 75.449219 C 66.148438 74.464844 66.148438 73.433594 66.148438 72.402344 C 65.121094 72.402344 64.089844 72.402344 63.0625 72.402344 L 62.203125 72.402344 L 62.203125 71.546875 C 62.203125 67.8125 62.203125 64.039062 62.203125 60.304688 L 62.203125 59.449219 L 63.0625 59.449219 C 64.089844 59.449219 65.121094 59.449219 66.148438 59.449219 C 66.148438 58.460938 66.148438 57.429688 66.148438 56.445312 L 66.148438 55.585938 L 67.007812 55.585938 C 72.066406 55.585938 77.167969 55.585938 82.226562 55.585938 L 83.085938 55.585938 L 83.085938 56.445312 C 83.085938 57.003906 83.085938 57.601562 83.085938 58.160156 C 83.085938 58.71875 83.085938 59.320312 83.085938 59.875 L 83.085938 60.734375 L 82.226562 60.734375 C 77.296875 60.734375 72.324219 60.734375 67.390625 60.734375 C 67.390625 61.164062 67.390625 61.636719 67.390625 62.066406 C 67.390625 62.492188 67.390625 62.921875 67.390625 63.351562 C 69.707031 63.351562 72.023438 63.351562 74.382812 63.351562 L 75.238281 63.351562 L 75.238281 64.210938 C 75.238281 65.367188 75.238281 66.527344 75.238281 67.640625 L 75.238281 68.542969 L 74.382812 68.542969 C 72.023438 68.542969 69.707031 68.542969 67.390625 68.542969 Z M 41.625 55.5 C 43.039062 55.5 44.496094 55.5 45.914062 55.5 L 46.769531 55.5 C 46.769531 60.261719 46.769531 65.023438 46.769531 69.789062 C 46.769531 70.214844 46.769531 70.644531 46.769531 71.117188 C 51.742188 71.117188 53.886719 71.117188 58.816406 71.117188 L 59.71875 71.117188 L 59.71875 71.976562 C 59.71875 73.132812 59.71875 74.25 59.71875 75.40625 L 59.71875 76.265625 L 58.816406 76.265625 C 52.171875 76.265625 48.3125 76.265625 41.625 76.265625 L 41.625 75.40625 C 41.625 68.800781 41.625 62.152344 41.625 55.5 Z M 41.625 55.5 " fill-opacity="1" fill-rule="evenodd"/><path fill="#462d0f" d="M 99.421875 87.546875 L 99.421875 85.804688 L 101.164062 85.804688 C 113.78125 85.804688 126.398438 85.804688 139.011719 85.804688 L 140.753906 85.804688 L 140.753906 87.546875 C 140.753906 88.972656 140.753906 90.402344 140.753906 91.832031 C 140.753906 93.054688 140.753906 94.273438 140.753906 95.496094 C 144.011719 95.496094 147.269531 95.496094 150.527344 95.496094 L 150.527344 97.238281 C 150.527344 100.09375 150.527344 102.953125 150.527344 105.8125 L 150.527344 107.554688 C 147.269531 107.554688 144.011719 107.554688 140.753906 107.554688 C 140.753906 108.761719 140.753906 109.96875 140.753906 111.175781 C 140.753906 112.605469 140.753906 114.035156 140.753906 115.464844 L 140.753906 117.203125 L 139.011719 117.203125 C 129.816406 117.203125 120.617188 117.203125 111.417969 117.203125 C 111.417969 123.09375 111.417969 128.980469 111.417969 134.867188 L 111.417969 136.609375 C 108 136.609375 104.582031 136.609375 101.164062 136.609375 L 99.421875 136.609375 L 99.421875 134.867188 C 99.421875 119.09375 99.421875 103.320312 99.421875 87.546875 Z M 111.417969 105.148438 C 120.4375 105.148438 129.453125 105.148438 138.46875 105.148438 C 138.46875 102.71875 138.46875 100.289062 138.46875 97.863281 C 129.453125 97.863281 120.433594 97.863281 111.417969 97.863281 C 111.417969 99.082031 111.417969 100.304688 111.417969 101.523438 C 111.417969 102.730469 111.417969 103.941406 111.417969 105.148438 Z M 41.625 87.605469 L 41.625 85.863281 L 43.367188 85.863281 C 46.222656 85.863281 49.082031 85.863281 51.9375 85.863281 L 53.679688 85.863281 L 53.679688 87.605469 C 53.679688 99.941406 53.679688 112.277344 53.679688 124.613281 C 62.699219 124.613281 71.714844 124.613281 80.734375 124.613281 C 80.734375 112.277344 80.734375 99.941406 80.734375 87.605469 L 80.734375 85.863281 L 82.472656 85.863281 C 85.332031 85.863281 88.191406 85.863281 91.046875 85.863281 L 92.789062 85.863281 L 92.789062 87.605469 C 92.789062 100.164062 92.789062 112.71875 92.789062 125.277344 L 92.789062 127.019531 L 91.046875 127.019531 C 89.617188 127.019531 88.191406 127.019531 86.761719 127.019531 C 85.511719 127.019531 84.265625 127.019531 83.015625 127.019531 C 83.015625 128.226562 83.015625 129.433594 83.015625 130.640625 C 83.015625 132.070312 83.015625 133.5 83.015625 134.929688 L 83.015625 136.671875 L 81.273438 136.671875 C 71.890625 136.671875 62.503906 136.671875 53.117188 136.671875 L 51.375 136.671875 L 51.375 134.929688 C 51.375 132.292969 51.375 129.65625 51.375 127.019531 C 48.707031 127.019531 46.035156 127.019531 43.367188 127.019531 L 41.625 127.019531 L 41.625 125.277344 C 41.625 112.71875 41.625 100.164062 41.625 87.605469 Z M 41.625 87.605469 " fill-opacity="1" fill-rule="evenodd"/></svg>