<svg xmlns="http://www.w3.org/2000/svg" xmlns:xlink="http://www.w3.org/1999/xlink" width="256" zoomAndPan="magnify" viewBox="0 0 192 191.999996" height="256" preserveAspectRatio="xMidYMid meet" version="1.0"><defs><clipPath id="e00ab1d2e0"><path d="M 19.199219 104 L 78 104 L 78 163 L 19.199219 163 Z M 19.199219 104 " clip-rule="nonzero"/></clipPath><clipPath id="2a277ad58a"><path d="M 66 19.199219 L 165 19.199219 L 165 82 L 66 82 Z M 66 19.199219 " clip-rule="nonzero"/></clipPath><clipPath id="12208f858c"><path d="M 21 21 L 172.949219 21 L 172.949219 172.949219 L 21 172.949219 Z M 21 21 " clip-rule="nonzero"/></clipPath></defs><g clip-path="url(#e00ab1d2e0)"><path fill="#000000" d="M 50.648438 120.148438 C 42.070312 120.148438 35.117188 127.101562 35.117188 135.675781 C 35.117188 141.414062 38.226562 146.4375 42.890625 149.132812 L 35.113281 162.578125 C 25.847656 157.21875 19.589844 147.183594 19.589844 135.675781 C 19.589844 118.523438 33.496094 104.617188 50.648438 104.617188 C 62.15625 104.617188 72.191406 110.878906 77.550781 120.140625 L 64.105469 127.917969 C 61.410156 123.253906 56.386719 120.148438 50.648438 120.148438 Z M 50.648438 120.148438 " fill-opacity="1" fill-rule="evenodd"/></g><path fill="#000000" d="M 66.179688 30.847656 L 81.710938 30.847656 L 81.710938 118.207031 L 66.179688 118.207031 Z M 66.179688 30.847656 " fill-opacity="1" fill-rule="evenodd"/><path fill="#000000" d="M 139.949219 120.148438 C 131.371094 120.148438 124.417969 127.101562 124.417969 135.675781 C 124.417969 144.253906 131.371094 151.207031 139.949219 151.207031 C 148.527344 151.207031 155.476562 144.253906 155.476562 135.675781 C 155.476562 127.101562 148.527344 120.148438 139.949219 120.148438 Z M 108.886719 135.675781 C 108.886719 118.523438 122.792969 104.617188 139.949219 104.617188 C 157.101562 104.617188 171.007812 118.523438 171.007812 135.675781 C 171.007812 152.832031 157.101562 166.738281 139.949219 166.738281 C 122.792969 166.738281 108.886719 152.832031 108.886719 135.675781 Z M 108.886719 135.675781 " fill-opacity="1" fill-rule="evenodd"/><path fill="#000000" d="M 155.476562 54.144531 L 171.007812 54.144531 L 171.007812 137.617188 L 155.476562 137.617188 Z M 155.476562 54.144531 " fill-opacity="1" fill-rule="evenodd"/><g clip-path="url(#2a277ad58a)"><path fill="#000000" d="M 81.710938 36.199219 L 152.011719 48.421875 L 154.671875 33.121094 L 79.824219 20.105469 C 72.699219 18.867188 66.179688 24.351562 66.179688 31.582031 L 66.179688 54.761719 C 66.179688 60.421875 70.253906 65.265625 75.832031 66.234375 L 126.96875 75.128906 L 129.628906 59.828125 L 81.710938 51.496094 Z M 144.902344 63.164062 L 164.3125 65.863281 L 162.171875 81.246094 L 142.761719 78.546875 Z M 144.902344 63.164062 " fill-opacity="1" fill-rule="evenodd"/></g><g clip-path="url(#12208f858c)"><path fill="#000000" d="M 21.863281 161.246094 L 161.636719 21.472656 L 172.617188 32.457031 L 32.84375 172.230469 Z M 21.863281 161.246094 " fill-opacity="1" fill-rule="evenodd"/></g></svg>