<svg xmlns="http://www.w3.org/2000/svg" xmlns:xlink="http://www.w3.org/1999/xlink" width="256" zoomAndPan="magnify" viewBox="0 0 192 191.999996" height="256" preserveAspectRatio="xMidYMid meet" version="1.0"><defs><clipPath id="60d887ceb4"><path d="M 32 19.199219 L 163 19.199219 L 163 171 L 32 171 Z M 32 19.199219 " clip-rule="nonzero"/></clipPath></defs><g clip-path="url(#60d887ceb4)"><path fill="#000000" d="M 162.019531 127.503906 L 162.019531 19.199219 L 68.699219 33.96875 L 68.699219 135.78125 C 63.675781 134.582031 57.65625 134.753906 51.542969 136.703125 C 38.445312 140.894531 30.066406 151.429688 32.875 160.222656 C 35.683594 169.027344 48.582031 172.75 61.691406 168.566406 C 74.792969 164.367188 80.363281 153.203125 80.363281 145.046875 L 80.363281 55.542969 L 150.355469 44.695312 L 150.355469 118.25 C 145.332031 117.050781 139.3125 117.21875 133.199219 119.171875 C 120.101562 123.363281 111.726562 133.898438 114.53125 142.691406 C 117.34375 151.496094 130.238281 155.21875 143.351562 151.035156 C 156.449219 146.828125 162.019531 135.664062 162.019531 127.503906 Z M 162.019531 127.503906 " fill-opacity="1" fill-rule="nonzero"/></g></svg>