<svg xmlns="http://www.w3.org/2000/svg" xmlns:xlink="http://www.w3.org/1999/xlink" width="256" zoomAndPan="magnify" viewBox="0 0 192 191.999996" height="256" preserveAspectRatio="xMidYMid meet" version="1.0"><defs><clipPath id="982da09de0"><path d="M 99 59 L 172.949219 59 L 172.949219 133 L 99 133 Z M 99 59 " clip-rule="nonzero"/></clipPath><clipPath id="0315138494"><path d="M 19.199219 29.253906 L 90 29.253906 L 90 162.753906 L 19.199219 162.753906 Z M 19.199219 29.253906 " clip-rule="nonzero"/></clipPath></defs><rect x="-19.2" width="230.4" fill="#ffffff" y="-19.2" height="230.399995" fill-opacity="1"/><rect x="-19.2" width="230.4" fill="#ffffff" y="-19.2" height="230.399995" fill-opacity="1"/><g clip-path="url(#982da09de0)"><path fill="#000000" d="M 144.914062 96.167969 L 170.082031 71.027344 C 170.386719 70.71875 170.664062 70.382812 170.90625 70.023438 C 171.148438 69.660156 171.351562 69.277344 171.519531 68.875 C 171.683594 68.472656 171.8125 68.058594 171.894531 67.632812 C 171.980469 67.207031 172.023438 66.773438 172.023438 66.339844 C 172.023438 65.902344 171.980469 65.472656 171.894531 65.046875 C 171.8125 64.617188 171.683594 64.203125 171.519531 63.800781 C 171.351562 63.398438 171.148438 63.019531 170.90625 62.65625 C 170.664062 62.292969 170.386719 61.960938 170.082031 61.652344 C 169.773438 61.34375 169.4375 61.070312 169.074219 60.828125 C 168.710938 60.585938 168.332031 60.382812 167.925781 60.214844 C 167.523438 60.046875 167.109375 59.921875 166.683594 59.835938 C 166.253906 59.753906 165.824219 59.710938 165.386719 59.710938 C 164.953125 59.710938 164.523438 59.753906 164.09375 59.835938 C 163.667969 59.921875 163.253906 60.046875 162.847656 60.214844 C 162.445312 60.382812 162.066406 60.585938 161.703125 60.828125 C 161.339844 61.070312 161.003906 61.34375 160.695312 61.652344 L 135.53125 86.792969 L 110.367188 61.652344 C 110.058594 61.34375 109.722656 61.070312 109.359375 60.828125 C 108.996094 60.585938 108.617188 60.382812 108.214844 60.214844 C 107.808594 60.046875 107.394531 59.921875 106.96875 59.835938 C 106.539062 59.753906 106.109375 59.710938 105.671875 59.710938 C 105.238281 59.710938 104.808594 59.753906 104.378906 59.835938 C 103.953125 59.921875 103.539062 60.046875 103.132812 60.214844 C 102.730469 60.382812 102.351562 60.585938 101.988281 60.828125 C 101.625 61.070312 101.289062 61.34375 100.980469 61.652344 C 100.675781 61.960938 100.398438 62.292969 100.15625 62.65625 C 99.914062 63.019531 99.710938 63.398438 99.542969 63.800781 C 99.378906 64.203125 99.25 64.617188 99.167969 65.046875 C 99.082031 65.472656 99.039062 65.902344 99.039062 66.339844 C 99.039062 66.773438 99.082031 67.207031 99.167969 67.632812 C 99.25 68.058594 99.378906 68.472656 99.542969 68.875 C 99.710938 69.277344 99.914062 69.660156 100.15625 70.023438 C 100.398438 70.382812 100.675781 70.71875 100.980469 71.027344 L 126.148438 96.167969 L 100.980469 121.3125 C 100.675781 121.621094 100.398438 121.957031 100.15625 122.316406 C 99.914062 122.679688 99.710938 123.0625 99.542969 123.464844 C 99.378906 123.867188 99.25 124.28125 99.167969 124.707031 C 99.082031 125.132812 99.039062 125.566406 99.039062 126 C 99.039062 126.433594 99.082031 126.867188 99.167969 127.292969 C 99.25 127.71875 99.378906 128.132812 99.542969 128.535156 C 99.710938 128.9375 99.914062 129.320312 100.15625 129.683594 C 100.398438 130.042969 100.675781 130.378906 100.980469 130.6875 C 101.289062 130.996094 101.625 131.269531 101.988281 131.511719 C 102.351562 131.753906 102.730469 131.957031 103.132812 132.125 C 103.539062 132.289062 103.953125 132.417969 104.378906 132.5 C 104.808594 132.585938 105.238281 132.628906 105.671875 132.628906 C 106.109375 132.628906 106.539062 132.585938 106.96875 132.5 C 107.394531 132.417969 107.808594 132.289062 108.210938 132.125 C 108.617188 131.957031 108.996094 131.753906 109.359375 131.511719 C 109.722656 131.269531 110.058594 130.996094 110.367188 130.6875 L 135.53125 105.542969 L 160.695312 130.6875 C 161.003906 130.996094 161.339844 131.269531 161.703125 131.511719 C 162.066406 131.753906 162.445312 131.957031 162.847656 132.121094 C 163.25 132.289062 163.667969 132.414062 164.09375 132.5 C 164.519531 132.582031 164.953125 132.625 165.386719 132.625 C 165.824219 132.625 166.253906 132.582031 166.679688 132.496094 C 167.109375 132.414062 167.523438 132.285156 167.925781 132.121094 C 168.328125 131.953125 168.710938 131.75 169.070312 131.507812 C 169.433594 131.265625 169.769531 130.992188 170.078125 130.683594 C 170.382812 130.375 170.660156 130.042969 170.902344 129.679688 C 171.144531 129.316406 171.347656 128.9375 171.515625 128.535156 C 171.679688 128.132812 171.808594 127.71875 171.890625 127.292969 C 171.976562 126.863281 172.019531 126.433594 172.019531 126 C 172.019531 125.5625 171.976562 125.132812 171.894531 124.707031 C 171.808594 124.28125 171.683594 123.863281 171.515625 123.464844 C 171.351562 123.0625 171.144531 122.679688 170.90625 122.316406 C 170.664062 121.957031 170.386719 121.621094 170.082031 121.3125 Z M 144.914062 96.167969 " fill-opacity="1" fill-rule="nonzero"/></g><g clip-path="url(#0315138494)"><path fill="#000000" d="M 84.867188 30.347656 C 84.242188 30.109375 83.59375 29.96875 82.925781 29.925781 C 82.257812 29.882812 81.597656 29.9375 80.949219 30.09375 C 80.296875 30.25 79.683594 30.5 79.109375 30.84375 C 78.535156 31.1875 78.023438 31.605469 77.574219 32.101562 L 49.6875 63.042969 L 26.113281 63.042969 C 25.679688 63.042969 25.25 63.085938 24.820312 63.171875 C 24.394531 63.253906 23.980469 63.378906 23.578125 63.546875 C 23.175781 63.714844 22.792969 63.917969 22.429688 64.160156 C 22.070312 64.402344 21.734375 64.675781 21.425781 64.984375 C 21.117188 65.292969 20.84375 65.625 20.601562 65.988281 C 20.359375 66.347656 20.15625 66.730469 19.988281 67.132812 C 19.820312 67.535156 19.695312 67.949219 19.609375 68.375 C 19.527344 68.800781 19.484375 69.234375 19.484375 69.667969 L 19.484375 125.984375 C 19.484375 126.417969 19.527344 126.847656 19.609375 127.277344 C 19.695312 127.703125 19.820312 128.117188 19.988281 128.519531 C 20.15625 128.921875 20.359375 129.300781 20.601562 129.664062 C 20.84375 130.027344 21.117188 130.359375 21.425781 130.667969 C 21.734375 130.976562 22.070312 131.25 22.429688 131.492188 C 22.792969 131.734375 23.175781 131.9375 23.578125 132.105469 C 23.980469 132.269531 24.394531 132.394531 24.820312 132.480469 C 25.25 132.566406 25.679688 132.609375 26.113281 132.609375 L 49.886719 132.609375 L 77.773438 160.46875 C 78.234375 160.933594 78.757812 161.324219 79.335938 161.632812 C 79.914062 161.945312 80.523438 162.167969 81.167969 162.296875 C 81.8125 162.425781 82.460938 162.460938 83.117188 162.398438 C 83.769531 162.335938 84.402344 162.179688 85.007812 161.925781 C 85.617188 161.675781 86.175781 161.34375 86.683594 160.929688 C 87.191406 160.511719 87.628906 160.03125 87.992188 159.484375 C 88.359375 158.941406 88.636719 158.351562 88.828125 157.722656 C 89.019531 157.097656 89.113281 156.453125 89.113281 155.796875 L 89.113281 36.542969 C 89.113281 35.871094 89.015625 35.214844 88.816406 34.574219 C 88.621094 33.933594 88.332031 33.339844 87.953125 32.785156 C 87.574219 32.234375 87.121094 31.75 86.597656 31.332031 C 86.070312 30.917969 85.492188 30.589844 84.867188 30.347656 Z M 75.847656 139.796875 L 57.316406 121.28125 C 56.695312 120.664062 55.976562 120.1875 55.167969 119.855469 C 54.359375 119.523438 53.515625 119.355469 52.640625 119.359375 L 32.746094 119.359375 L 32.746094 76.292969 L 52.640625 76.292969 C 53.582031 76.296875 54.480469 76.105469 55.34375 75.726562 C 56.203125 75.34375 56.949219 74.804688 57.582031 74.105469 L 75.847656 53.800781 L 75.847656 139.929688 Z M 75.847656 139.796875 " fill-opacity="1" fill-rule="nonzero"/></g></svg>