<svg xmlns="http://www.w3.org/2000/svg" xmlns:xlink="http://www.w3.org/1999/xlink" width="256" zoomAndPan="magnify" viewBox="0 0 192 191.999996" height="256" preserveAspectRatio="xMidYMid meet" version="1.0"><defs><clipPath id="80017ab1ed"><path d="M 63 19.574219 L 168.636719 19.574219 L 168.636719 116 L 63 116 Z M 63 19.574219 " clip-rule="nonzero"/></clipPath><clipPath id="10439eee30"><path d="M 85 19.199219 L 146 19.199219 L 146 54 L 85 54 Z M 85 19.199219 " clip-rule="nonzero"/></clipPath><clipPath id="7396a00861"><path d="M 63 19.574219 L 168.636719 19.574219 L 168.636719 116 L 63 116 Z M 63 19.574219 " clip-rule="nonzero"/></clipPath><clipPath id="dab1eb6c00"><path d="M 23.136719 37.015625 L 144 37.015625 L 144 172.515625 L 23.136719 172.515625 Z M 23.136719 37.015625 " clip-rule="nonzero"/></clipPath></defs><g clip-path="url(#80017ab1ed)"><path fill="#6b6c6e" d="M 166.027344 115.164062 L 166.011719 115.164062 C 161.53125 100.230469 150.238281 82.585938 133.917969 66.109375 C 133.652344 65.839844 133.378906 65.574219 133.105469 65.300781 C 132.441406 64.648438 131.765625 63.992188 131.085938 63.332031 C 130.777344 63.027344 130.480469 62.730469 130.160156 62.445312 C 128.511719 60.867188 126.8125 59.304688 125.0625 57.757812 C 123.316406 56.203125 121.546875 54.703125 119.792969 53.265625 C 119.453125 52.96875 119.121094 52.695312 118.78125 52.429688 C 118.050781 51.839844 117.316406 51.257812 116.585938 50.671875 C 116.292969 50.4375 115.988281 50.199219 115.691406 49.964844 C 97.367188 35.757812 78.527344 26.714844 63.175781 24.089844 L 63.175781 24.070312 C 77.414062 14.792969 103.113281 20.179688 126.8125 37.347656 L 126.824219 37.355469 C 127.140625 37.546875 127.441406 37.78125 127.738281 38.019531 C 128.488281 38.558594 129.226562 39.125 129.988281 39.707031 C 130.328125 39.976562 130.667969 40.246094 131.019531 40.527344 C 132.804688 41.925781 134.582031 43.414062 136.332031 44.96875 C 138.085938 46.515625 139.773438 48.101562 141.378906 49.703125 C 141.6875 50.007812 141.984375 50.304688 142.292969 50.609375 C 142.960938 51.289062 143.617188 51.960938 144.257812 52.648438 C 144.53125 52.917969 144.796875 53.1875 145.023438 53.476562 L 145.035156 53.488281 C 164.953125 74.949219 173.46875 99.859375 166.027344 115.164062 " fill-opacity="1" fill-rule="nonzero"/></g><g clip-path="url(#10439eee30)"><path fill="#b1b1af" d="M 145.035156 53.488281 L 145.023438 53.476562 C 144.808594 53.199219 144.542969 52.933594 144.28125 52.671875 C 144.542969 52.933594 144.808594 53.199219 145.035156 53.488281 M 144.277344 52.664062 C 144.269531 52.664062 144.269531 52.660156 144.265625 52.652344 C 144.269531 52.660156 144.269531 52.664062 144.277344 52.664062 M 126.921875 37.417969 C 126.886719 37.398438 126.855469 37.378906 126.824219 37.355469 L 126.8125 37.347656 C 112.875 27.253906 98.253906 21.234375 85.675781 19.871094 C 98.289062 21.234375 112.960938 27.285156 126.921875 37.417969 " fill-opacity="1" fill-rule="nonzero"/></g><g clip-path="url(#7396a00861)"><path fill="#909190" d="M 166.027344 115.164062 C 165.953125 114.921875 165.863281 114.667969 165.789062 114.425781 C 171.726562 99.015625 163.105469 75.253906 144.003906 54.660156 L 145.035156 53.488281 L 145.023438 53.476562 C 144.808594 53.199219 144.542969 52.933594 144.28125 52.671875 C 144.542969 52.933594 144.808594 53.199219 145.023438 53.476562 L 145.035156 53.488281 C 164.441406 74.402344 173.035156 98.601562 166.542969 113.980469 C 166.386719 114.390625 166.207031 114.777344 166.027344 115.164062 M 126.707031 39.1875 L 127.738281 38.019531 L 126.707031 39.1875 M 125.78125 38.511719 C 109.847656 26.96875 92.996094 20.75 79.339844 20.75 C 73.515625 20.75 68.269531 21.882812 63.933594 24.21875 C 63.679688 24.175781 63.421875 24.113281 63.175781 24.070312 C 63.53125 23.847656 63.898438 23.617188 64.28125 23.414062 C 68.746094 20.824219 74.226562 19.574219 80.355469 19.574219 C 82.078125 19.574219 83.859375 19.671875 85.675781 19.871094 C 98.253906 21.234375 112.875 27.253906 126.8125 37.347656 L 126.824219 37.355469 C 126.855469 37.378906 126.886719 37.398438 126.921875 37.417969 C 126.886719 37.398438 126.855469 37.378906 126.824219 37.355469 L 126.8125 37.347656 L 125.78125 38.511719 " fill-opacity="1" fill-rule="nonzero"/></g><g clip-path="url(#dab1eb6c00)"><path fill="#623216" d="M 143.949219 46.792969 L 35.230469 170.171875 C 32.707031 173.039062 28.335938 173.3125 25.472656 170.773438 C 22.609375 168.242188 22.339844 163.863281 24.867188 160.988281 L 133.582031 37.617188 L 143.949219 46.792969 " fill-opacity="1" fill-rule="nonzero"/></g><path fill="#adaba9" d="M 142.449219 48.496094 L 143.078125 47.785156 L 142.449219 48.496094 M 132.082031 39.320312 L 132.710938 38.601562 L 132.082031 39.320312 " fill-opacity="1" fill-rule="nonzero"/><path fill="#3e2215" d="M 142.449219 48.496094 L 132.082031 39.320312 L 132.710938 38.601562 L 143.078125 47.785156 L 142.449219 48.496094 " fill-opacity="1" fill-rule="nonzero"/><path fill="#959392" d="M 145.519531 51.214844 L 131.261719 67.394531 L 114.746094 52.765625 L 129 36.585938 L 145.519531 51.214844 " fill-opacity="1" fill-rule="nonzero"/><path fill="#cecbc9" d="M 145.519531 51.214844 L 143.40625 49.347656 L 145.519531 51.214844 " fill-opacity="1" fill-rule="nonzero"/><path fill="#b5b3b0" d="M 131.261719 67.394531 L 129.152344 65.523438 L 143.40625 49.347656 L 145.519531 51.214844 L 144.257812 52.648438 L 139.101562 58.5 L 133.105469 65.300781 L 131.261719 67.394531 " fill-opacity="1" fill-rule="nonzero"/><path fill="#adaba9" d="M 131.097656 38.445312 L 129 36.585938 L 131.097656 38.445312 " fill-opacity="1" fill-rule="nonzero"/><path fill="#616061" d="M 116.839844 54.621094 L 114.746094 52.765625 L 116.585938 50.671875 L 122.226562 44.273438 L 129 36.585938 L 131.097656 38.445312 L 116.839844 54.621094 " fill-opacity="1" fill-rule="nonzero"/><path fill="#adaba9" d="M 127.164062 65.84375 L 128.191406 64.675781 L 127.164062 65.84375 " fill-opacity="1" fill-rule="nonzero"/><path fill="#3e2215" d="M 126.515625 66.582031 L 116.148438 57.402344 L 117.828125 55.496094 L 128.191406 64.675781 L 127.164062 65.84375 L 126.515625 66.582031 " fill-opacity="1" fill-rule="nonzero"/><path fill="#616061" d="M 128.191406 64.675781 L 117.828125 55.496094 L 128.195312 64.675781 L 128.191406 64.675781 " fill-opacity="1" fill-rule="nonzero"/><path fill="#cccac8" d="M 133.917969 66.109375 C 133.652344 65.839844 133.378906 65.574219 133.105469 65.300781 C 133.378906 65.574219 133.652344 65.839844 133.917969 66.109375 " fill-opacity="1" fill-rule="nonzero"/><path fill="#535455" d="M 133.917969 66.109375 C 133.652344 65.839844 133.378906 65.574219 133.105469 65.300781 L 139.101562 58.5 L 143.226562 53.816406 C 143.5 54.089844 143.765625 54.355469 144.003906 54.660156 L 133.917969 66.109375 M 144.28125 52.671875 C 144.28125 52.671875 144.277344 52.671875 144.277344 52.664062 C 144.277344 52.671875 144.28125 52.671875 144.28125 52.671875 " fill-opacity="1" fill-rule="nonzero"/><path fill="#6f7171" d="M 144.003906 54.660156 C 143.765625 54.355469 143.5 54.089844 143.226562 53.816406 L 144.257812 52.648438 C 144.265625 52.652344 144.269531 52.660156 144.277344 52.664062 C 144.277344 52.671875 144.28125 52.671875 144.28125 52.671875 C 144.542969 52.933594 144.808594 53.199219 145.023438 53.476562 L 145.035156 53.488281 L 144.003906 54.660156 " fill-opacity="1" fill-rule="nonzero"/><path fill="#8d8c8b" d="M 139.101562 58.5 L 144.257812 52.648438 L 139.101562 58.5 " fill-opacity="1" fill-rule="nonzero"/><path fill="#535455" d="M 116.585938 50.671875 C 116.292969 50.4375 115.988281 50.199219 115.691406 49.964844 L 125.78125 38.511719 C 126.089844 38.738281 126.398438 38.960938 126.707031 39.1875 L 122.226562 44.273438 L 116.585938 50.671875 M 127.738281 38.019531 C 127.46875 37.820312 127.195312 37.617188 126.921875 37.417969 C 127.203125 37.597656 127.472656 37.808594 127.738281 38.019531 " fill-opacity="1" fill-rule="nonzero"/><path fill="#6f7171" d="M 126.707031 39.1875 C 126.398438 38.960938 126.089844 38.738281 125.78125 38.511719 L 126.8125 37.347656 L 126.824219 37.355469 C 126.855469 37.378906 126.886719 37.398438 126.921875 37.417969 C 127.195312 37.617188 127.46875 37.820312 127.738281 38.019531 L 126.707031 39.1875 " fill-opacity="1" fill-rule="nonzero"/><path fill="#4c4b4b" d="M 116.585938 50.671875 L 122.226562 44.273438 L 116.585938 50.671875 " fill-opacity="1" fill-rule="nonzero"/></svg>