<svg xmlns="http://www.w3.org/2000/svg" xmlns:xlink="http://www.w3.org/1999/xlink" width="256" zoomAndPan="magnify" viewBox="0 0 192 191.999996" height="256" preserveAspectRatio="xMidYMid meet" version="1.0"><defs><clipPath id="03b5eda52d"><path d="M 57.027344 32 L 135 32 L 135 170 L 57.027344 170 Z M 57.027344 32 " clip-rule="nonzero"/></clipPath><clipPath id="999517ee76"><path d="M 57.027344 32 L 99 32 L 99 169 L 57.027344 169 Z M 57.027344 32 " clip-rule="nonzero"/></clipPath><clipPath id="261f3d7f96"><path d="M 66 162 L 126 162 L 126 172.949219 L 66 172.949219 Z M 66 162 " clip-rule="nonzero"/></clipPath><clipPath id="9bda213189"><path d="M 62 19.199219 L 130 19.199219 L 130 35 L 62 35 Z M 62 19.199219 " clip-rule="nonzero"/></clipPath><clipPath id="b1c4ad81ee"><path d="M 57.027344 43 L 70 43 L 70 50 L 57.027344 50 Z M 57.027344 43 " clip-rule="nonzero"/></clipPath><clipPath id="54fda71731"><path d="M 57.027344 31 L 135.027344 31 L 135.027344 169 L 57.027344 169 Z M 57.027344 31 " clip-rule="nonzero"/></clipPath><clipPath id="463af3fa7d"><path d="M 65 162 L 127 162 L 127 172.949219 L 65 172.949219 Z M 65 162 " clip-rule="nonzero"/></clipPath><clipPath id="f4f14ba016"><path d="M 63.660156 57.601562 L 128 57.601562 L 128 127 L 63.660156 127 Z M 63.660156 57.601562 " clip-rule="nonzero"/></clipPath><clipPath id="893dbcb154"><path d="M 63.660156 57.601562 L 83 57.601562 L 83 86 L 63.660156 86 Z M 63.660156 57.601562 " clip-rule="nonzero"/></clipPath><clipPath id="29ea51ab91"><path d="M 108 57.601562 L 128 57.601562 L 128 86 L 108 86 Z M 108 57.601562 " clip-rule="nonzero"/></clipPath><clipPath id="ceeb74730c"><path d="M 63.660156 57.601562 L 128.160156 57.601562 L 128.160156 134.101562 L 63.660156 134.101562 Z M 63.660156 57.601562 " clip-rule="nonzero"/></clipPath></defs><path fill="#ffffff" d="M 98.53125 33.445312 C 97.679688 33.457031 96.820312 33.460938 95.953125 33.464844 C 77.824219 33.464844 63.125 30.457031 63.125 26.75 C 63.125 23.042969 77.824219 20.039062 95.953125 20.039062 C 96.820312 20.039062 97.679688 20.046875 98.53125 20.058594 C 81.613281 20.328125 68.273438 23.222656 68.273438 26.75 C 68.273438 30.277344 81.613281 33.175781 98.53125 33.445312 Z M 98.53125 33.445312 " fill-opacity="1" fill-rule="nonzero"/><path fill="#e6e6e6" d="M 128.78125 26.75 C 128.78125 30.28125 115.453125 33.175781 98.53125 33.445312 C 81.613281 33.175781 68.273438 30.28125 68.273438 26.75 C 68.273438 23.21875 81.613281 20.328125 98.53125 20.058594 C 115.453125 20.328125 128.78125 23.222656 128.78125 26.75 Z M 128.78125 26.75 " fill-opacity="1" fill-rule="nonzero"/><path fill="#e6e6e6" d="M 128.78125 26.75 C 128.78125 30.28125 115.453125 33.175781 98.53125 33.445312 C 81.613281 33.175781 68.273438 30.28125 68.273438 26.75 C 68.273438 23.21875 81.613281 20.328125 98.53125 20.058594 C 115.453125 20.328125 128.78125 23.222656 128.78125 26.75 Z M 128.78125 26.75 " fill-opacity="1" fill-rule="nonzero"/><g clip-path="url(#03b5eda52d)"><path fill="#ed1c24" d="M 134.453125 155.796875 C 134.453125 158.714844 131.769531 161.414062 127.210938 163.613281 C 126.867188 163.777344 126.511719 163.941406 126.148438 164.101562 C 125.652344 164.289062 125.054688 164.511719 124.355469 164.761719 C 119.738281 166.410156 110.546875 169.148438 96.21875 169.148438 C 79.703125 169.148438 70.449219 165.664062 66.28125 164.109375 L 65.929688 163.949219 C 60.945312 161.6875 57.980469 158.863281 57.980469 155.796875 L 57.980469 44.640625 L 63.390625 32.867188 C 63.390625 36.589844 78.089844 39.609375 96.21875 39.609375 C 106.023438 39.609375 114.828125 38.726562 120.839844 37.320312 C 125.632812 36.207031 128.652344 34.761719 129.007812 33.175781 L 134.277344 44.636719 L 134.433594 154.355469 C 134.433594 155.21875 134.453125 155.363281 134.453125 155.796875 Z M 134.453125 155.796875 " fill-opacity="1" fill-rule="nonzero"/></g><g clip-path="url(#999517ee76)"><path fill="#ffffff" d="M 71.730469 163.214844 C 75.65625 164.671875 84.089844 167.832031 98.847656 168.195312 C 97.929688 168.21875 96.992188 168.230469 96.027344 168.230469 C 79.511719 168.230469 70.257812 164.761719 66.089844 163.214844 L 65.738281 163.054688 C 60.753906 160.8125 57.789062 158.003906 57.789062 154.949219 L 57.789062 44.277344 L 63.199219 32.558594 C 63.199219 33.742188 64.699219 34.855469 67.335938 35.820312 L 63.429688 44.277344 L 63.429688 154.949219 C 63.429688 158 66.394531 160.8125 71.375 163.054688 Z M 71.730469 163.214844 " fill-opacity="0.35" fill-rule="nonzero"/></g><path fill="#0071ff" d="M 98.828125 39.246094 C 97.90625 39.261719 96.96875 39.269531 96.027344 39.269531 C 83.691406 39.269531 72.941406 37.878906 67.335938 35.820312 L 68.84375 32.558594 C 68.84375 36.070312 82.027344 38.953125 98.828125 39.246094 Z M 98.828125 39.246094 " fill-opacity="1" fill-rule="nonzero"/><path stroke-linecap="butt" transform="matrix(0.190569, 0, 0, 0.190615, 57.028287, 19.276222)" fill-opacity="1" fill="#ffffff" fill-rule="nonzero" stroke-linejoin="miter" d="M 309.819244 55.603073 C 307.748966 55.992438 305.617195 56.340817 303.423931 56.709689 C 285.078403 59.70165 262.03888 61.832909 236.334643 62.837061 C 230.349287 58.902427 226.167736 54.598922 224.650899 50.479853 C 223.99497 48.778944 223.851485 47.037049 224.240943 45.254168 C 226.680181 35.110192 248.817801 31.749359 273.661131 37.733281 C 289.813394 41.626928 303.116464 48.492044 309.819244 55.603073 Z M 309.819244 55.603073 " stroke="#cccccc" stroke-width="1" stroke-opacity="1" stroke-miterlimit="10"/><path fill="#cccccc" d="M 114.851562 30.085938 C 111.355469 30.65625 106.964844 31.0625 102.066406 31.253906 C 100.925781 30.503906 100.128906 29.683594 99.839844 28.898438 C 100.582031 27.152344 104.644531 26.609375 109.179688 27.699219 C 111.46875 28.25 113.457031 29.117188 114.851562 30.085938 Z M 114.851562 30.085938 " fill-opacity="1" fill-rule="nonzero"/><g clip-path="url(#261f3d7f96)"><path fill="#b3b3b3" d="M 125.945312 162.726562 C 125.46875 167.902344 112.257812 172.046875 96.023438 172.046875 C 81.160156 172.046875 68.820312 168.566406 66.484375 164.007812 C 70.5625 167.820312 82.097656 170.570312 95.683594 170.570312 C 110.75 170.570312 123.289062 167.195312 125.945312 162.726562 Z M 125.945312 162.726562 " fill-opacity="1" fill-rule="nonzero"/></g><path fill="#e6e6e6" d="M 125.957031 163.210938 L 125.957031 163.230469 C 125.957031 163.316406 125.953125 163.40625 125.945312 163.492188 C 123.289062 167.589844 110.75 170.691406 95.683594 170.691406 C 82.097656 170.691406 70.566406 168.167969 66.488281 164.667969 C 66.230469 164.222656 66.097656 163.742188 66.089844 163.230469 L 66.089844 163.214844 C 73.09375 166.261719 83.902344 168.230469 96.027344 168.230469 C 108.148438 168.230469 118.953125 166.269531 125.957031 163.210938 Z M 125.957031 163.210938 " fill-opacity="1" fill-rule="nonzero"/><path fill="#cccccc" d="M 128.78125 27.535156 L 128.78125 33.46875 C 128.78125 33.46875 124.128906 39.527344 96.027344 39.269531 C 78.527344 39.109375 70.09375 36.546875 66.222656 34.636719 C 63.875 33.476562 63.199219 32.558594 63.199219 32.558594 L 63.148438 28.996094 L 63.125 27.535156 C 63.125 27.535156 63.125 28.15625 64.28125 28.992188 C 64.886719 29.417969 65.535156 29.769531 66.21875 30.050781 C 70.011719 31.667969 78.453125 33.464844 97.25 33.464844 C 128.78125 33.464844 128.78125 27.535156 128.78125 27.535156 Z M 128.78125 27.535156 " fill-opacity="1" fill-rule="nonzero"/><path fill="#ffffff" d="M 78.320312 86.527344 C 78.320312 87.449219 78.3125 88.367188 78.296875 89.28125 C 78.28125 90.199219 78.257812 91.109375 78.226562 92.011719 C 78.195312 92.914062 78.15625 93.804688 78.113281 94.683594 C 78.066406 95.566406 78.011719 96.429688 77.953125 97.28125 C 77.890625 98.128906 77.824219 98.960938 77.75 99.773438 C 77.675781 100.585938 77.59375 101.371094 77.503906 102.136719 C 77.417969 102.902344 77.324219 103.640625 77.222656 104.351562 C 77.121094 105.0625 77.015625 105.746094 76.902344 106.394531 C 76.789062 107.046875 76.671875 107.664062 76.550781 108.246094 C 76.429688 108.832031 76.300781 109.378906 76.167969 109.890625 C 76.039062 110.398438 75.902344 110.871094 75.761719 111.304688 C 75.621094 111.738281 75.480469 112.132812 75.332031 112.484375 C 75.1875 112.835938 75.035156 113.148438 74.886719 113.414062 C 74.734375 113.679688 74.578125 113.90625 74.425781 114.082031 C 74.269531 114.261719 74.113281 114.398438 73.953125 114.488281 C 73.796875 114.578125 73.636719 114.625 73.480469 114.625 C 73.320312 114.625 73.164062 114.578125 73.003906 114.488281 C 72.847656 114.398438 72.691406 114.261719 72.535156 114.082031 C 72.378906 113.90625 72.226562 113.679688 72.074219 113.414062 C 71.921875 113.148438 71.773438 112.835938 71.628906 112.484375 C 71.480469 112.132812 71.339844 111.738281 71.199219 111.304688 C 71.058594 110.871094 70.921875 110.398438 70.789062 109.890625 C 70.660156 109.378906 70.53125 108.832031 70.410156 108.246094 C 70.285156 107.664062 70.167969 107.046875 70.058594 106.394531 C 69.945312 105.746094 69.839844 105.0625 69.738281 104.351562 C 69.636719 103.640625 69.542969 102.902344 69.457031 102.136719 C 69.367188 101.371094 69.285156 100.585938 69.210938 99.773438 C 69.136719 98.960938 69.070312 98.128906 69.007812 97.28125 C 68.949219 96.429688 68.894531 95.566406 68.847656 94.683594 C 68.800781 93.804688 68.761719 92.914062 68.734375 92.011719 C 68.703125 91.109375 68.679688 90.199219 68.664062 89.28125 C 68.648438 88.367188 68.640625 87.449219 68.640625 86.527344 C 68.640625 85.609375 68.648438 84.691406 68.664062 83.773438 C 68.679688 82.859375 68.703125 81.949219 68.734375 81.046875 C 68.761719 80.144531 68.800781 79.253906 68.847656 78.375 C 68.894531 77.492188 68.949219 76.628906 69.007812 75.777344 C 69.070312 74.925781 69.136719 74.097656 69.210938 73.285156 C 69.285156 72.472656 69.367188 71.683594 69.457031 70.921875 C 69.542969 70.15625 69.636719 69.417969 69.738281 68.707031 C 69.839844 67.996094 69.945312 67.3125 70.058594 66.664062 C 70.167969 66.011719 70.285156 65.394531 70.410156 64.8125 C 70.53125 64.226562 70.660156 63.679688 70.789062 63.167969 C 70.921875 62.65625 71.058594 62.183594 71.199219 61.75 C 71.339844 61.316406 71.480469 60.925781 71.628906 60.574219 C 71.773438 60.222656 71.921875 59.910156 72.074219 59.644531 C 72.226562 59.375 72.378906 59.152344 72.535156 58.972656 C 72.691406 58.792969 72.847656 58.660156 73.003906 58.570312 C 73.164062 58.480469 73.320312 58.433594 73.480469 58.433594 C 73.636719 58.433594 73.796875 58.480469 73.953125 58.570312 C 74.113281 58.660156 74.269531 58.792969 74.425781 58.972656 C 74.578125 59.152344 74.734375 59.375 74.886719 59.644531 C 75.035156 59.910156 75.1875 60.222656 75.332031 60.574219 C 75.480469 60.925781 75.621094 61.316406 75.761719 61.75 C 75.902344 62.183594 76.039062 62.65625 76.167969 63.167969 C 76.300781 63.679688 76.429688 64.226562 76.550781 64.8125 C 76.671875 65.394531 76.789062 66.011719 76.902344 66.664062 C 77.015625 67.3125 77.121094 67.996094 77.222656 68.707031 C 77.324219 69.417969 77.417969 70.15625 77.503906 70.921875 C 77.59375 71.683594 77.675781 72.472656 77.75 73.285156 C 77.824219 74.097656 77.890625 74.925781 77.953125 75.777344 C 78.011719 76.628906 78.066406 77.492188 78.113281 78.375 C 78.15625 79.253906 78.195312 80.144531 78.226562 81.046875 C 78.257812 81.949219 78.28125 82.859375 78.296875 83.773438 C 78.3125 84.691406 78.320312 85.609375 78.320312 86.527344 Z M 78.320312 86.527344 " fill-opacity="0.35" fill-rule="nonzero"/><path fill="#ffffff" d="M 131.386719 141.226562 C 131.386719 141.976562 131.375 142.71875 131.351562 143.453125 C 131.324219 144.1875 131.289062 144.902344 131.238281 145.59375 C 131.1875 146.285156 131.128906 146.941406 131.058594 147.566406 C 130.984375 148.1875 130.902344 148.765625 130.8125 149.296875 C 130.722656 149.824219 130.621094 150.296875 130.515625 150.714844 C 130.40625 151.132812 130.292969 151.484375 130.175781 151.769531 C 130.054688 152.054688 129.933594 152.273438 129.804688 152.417969 C 129.679688 152.566406 129.550781 152.636719 129.421875 152.636719 C 129.292969 152.636719 129.164062 152.566406 129.039062 152.417969 C 128.910156 152.273438 128.789062 152.054688 128.667969 151.769531 C 128.550781 151.484375 128.4375 151.132812 128.328125 150.714844 C 128.222656 150.296875 128.121094 149.824219 128.03125 149.296875 C 127.941406 148.765625 127.859375 148.1875 127.785156 147.566406 C 127.714844 146.941406 127.652344 146.285156 127.605469 145.59375 C 127.554688 144.902344 127.519531 144.1875 127.492188 143.453125 C 127.46875 142.71875 127.453125 141.976562 127.453125 141.226562 C 127.453125 140.476562 127.46875 139.734375 127.492188 139 C 127.519531 138.265625 127.554688 137.550781 127.605469 136.859375 C 127.652344 136.167969 127.714844 135.507812 127.785156 134.886719 C 127.859375 134.261719 127.941406 133.6875 128.03125 133.15625 C 128.121094 132.625 128.222656 132.152344 128.328125 131.738281 C 128.4375 131.320312 128.550781 130.96875 128.667969 130.683594 C 128.789062 130.394531 128.910156 130.179688 129.039062 130.03125 C 129.164062 129.886719 129.292969 129.8125 129.421875 129.8125 C 129.550781 129.8125 129.679688 129.886719 129.804688 130.03125 C 129.933594 130.179688 130.054688 130.394531 130.175781 130.683594 C 130.292969 130.96875 130.40625 131.320312 130.515625 131.738281 C 130.621094 132.152344 130.722656 132.625 130.8125 133.15625 C 130.902344 133.6875 130.984375 134.261719 131.058594 134.886719 C 131.128906 135.507812 131.1875 136.167969 131.238281 136.859375 C 131.289062 137.550781 131.324219 138.265625 131.351562 139 C 131.375 139.734375 131.386719 140.476562 131.386719 141.226562 Z M 131.386719 141.226562 " fill-opacity="0.35" fill-rule="nonzero"/><path fill="#74272d" d="M 133.777344 155.488281 C 133.777344 158.394531 131.09375 161.082031 126.535156 163.265625 C 126.191406 163.429688 125.835938 163.59375 125.472656 163.75 C 124.980469 163.941406 124.382812 164.164062 123.679688 164.414062 L 123.679688 49.246094 L 120.164062 37.539062 C 124.960938 36.425781 127.980469 34.988281 128.332031 33.40625 L 133.601562 44.820312 L 133.757812 154.054688 C 133.757812 154.914062 133.777344 155.058594 133.777344 155.488281 Z M 133.777344 155.488281 " fill-opacity="0.48" fill-rule="nonzero"/><path stroke-linecap="butt" transform="matrix(0.190569, 0, 0, 0.190615, 57.028287, 19.276222)" fill-opacity="1" fill="#999999" fill-rule="nonzero" stroke-linejoin="miter" d="M 274.460545 69.681683 L 219.34197 104.765496 C 219.34197 104.765496 348.560079 106.199998 376.703554 71.300621 L 376.519074 43.307345 C 376.519074 43.307345 330.747494 74.825396 274.460545 69.681683 Z M 274.460545 69.681683 " stroke="#cccccc" stroke-width="1" stroke-opacity="1" stroke-miterlimit="10"/><path fill="#ffffff" d="M 66.222656 28.996094 L 66.222656 34.640625 C 63.875 33.480469 63.199219 32.5625 63.199219 32.5625 L 63.148438 28.996094 Z M 66.222656 28.996094 " fill-opacity="1" fill-rule="nonzero"/><path fill="#b3b3b3" d="M 113.511719 23.046875 C 114.464844 23.308594 112.914062 27.753906 111.796875 27.277344 C 110.679688 26.804688 116.074219 29.875 116.074219 29.875 C 116.074219 29.875 122.933594 28.796875 123.269531 26.753906 C 123.609375 24.707031 113.511719 23.046875 113.511719 23.046875 Z M 113.511719 23.046875 " fill-opacity="1" fill-rule="nonzero"/><path fill="#b3b3b3" d="M 84.375 27.78125 C 83.570312 28.234375 72.570312 26.460938 75.953125 23.742188 C 75.953125 23.742188 68.644531 24.539062 68.640625 26.460938 C 68.632812 28.386719 78.523438 30.808594 80.835938 30.597656 Z M 84.375 27.78125 " fill-opacity="1" fill-rule="nonzero"/><path fill="#b3b3b3" d="M 99.292969 27.28125 C 99.292969 27.28125 92.324219 27.238281 92.296875 31.3125 L 101.464844 31.257812 C 101.464844 31.257812 99.644531 28.511719 99.292969 27.28125 Z M 99.292969 27.28125 " fill-opacity="1" fill-rule="nonzero"/><g clip-path="url(#9bda213189)"><path stroke-linecap="round" transform="matrix(0.190569, 0, 0, 0.190615, 57.028287, 19.276222)" fill="none" stroke-linejoin="round" d="M 376.519074 39.229261 C 376.519074 40.376862 376.232104 41.524464 375.678664 42.672065 C 375.125223 43.819667 374.305312 44.967268 373.198431 46.094376 C 372.09155 47.221485 370.738695 48.348593 369.098871 49.434716 C 367.459047 50.541332 365.552752 51.627454 363.400484 52.693084 C 361.248215 53.758714 358.829475 54.803851 356.164762 55.828495 C 353.520546 56.832646 350.609859 57.836798 347.473696 58.77947 C 344.337533 59.742636 340.996392 60.664815 337.409278 61.566502 C 333.822163 62.447696 330.050569 63.308397 326.053499 64.128112 C 322.076926 64.947827 317.895375 65.706064 313.529345 66.443808 C 309.163314 67.181552 304.653799 67.857817 299.959804 68.513589 C 295.265808 69.148868 290.428328 69.743162 285.467861 70.275977 C 280.486897 70.829284 275.382945 71.321114 270.176505 71.751464 C 264.970065 72.202308 259.661136 72.591672 254.270215 72.919558 C 248.858797 73.267937 243.406383 73.534345 237.871978 73.759767 C 232.337573 73.985188 226.762172 74.149131 221.145776 74.272089 C 215.52938 74.374553 209.892486 74.436032 204.255592 74.436032 C 198.618697 74.436032 192.981803 74.374553 187.385905 74.272089 C 181.769509 74.149131 176.194108 73.985188 170.659703 73.759767 C 165.125298 73.534345 159.652386 73.267937 154.261466 72.919558 C 148.850048 72.591672 143.561616 72.202308 138.334678 71.751464 C 133.128238 71.321114 128.044784 70.829284 123.063819 70.275977 C 118.082855 69.743162 113.245375 69.148868 108.571877 68.513589 C 103.877882 67.857817 99.347869 67.181552 94.981838 66.443808 C 90.615808 65.706064 86.454755 64.947827 82.457685 64.128112 C 78.481112 63.308397 74.68902 62.447696 71.101905 61.566502 C 67.535289 60.664815 64.17365 59.742636 61.037487 58.77947 C 57.901324 57.836798 55.011135 56.832646 52.346421 55.828495 C 49.681708 54.803851 47.283466 53.758714 45.131197 52.693084 C 42.958431 51.627454 41.072633 50.541332 39.43281 49.434716 C 37.792986 48.348593 36.419634 47.221485 35.312753 46.094376 C 34.226369 44.967268 33.38596 43.819667 32.832519 42.672065 C 32.279079 41.524464 32.012607 40.376862 32.012607 39.229261 C 32.012607 38.061167 32.279079 36.913565 32.832519 35.765964 C 33.38596 34.618363 34.226369 33.470761 35.312753 32.343653 C 36.419634 31.216544 37.792986 30.109929 39.43281 29.003313 C 41.072633 27.896698 42.958431 26.810575 45.131197 25.744945 C 47.283466 24.679315 49.681708 23.634178 52.346421 22.609534 C 55.011135 21.605383 57.901324 20.621725 61.037487 19.658559 C 64.17365 18.695394 67.535289 17.773214 71.101905 16.871527 C 74.68902 15.990333 78.481112 15.129632 82.457685 14.309917 C 86.454755 13.490202 90.615808 12.731965 94.981838 11.994221 C 99.347869 11.256478 103.877882 10.580213 108.571877 9.944933 C 113.245375 9.289161 118.082855 8.694868 123.063819 8.162053 C 128.044784 7.608745 133.128238 7.116916 138.334678 6.686565 C 143.561616 6.235722 148.850048 5.846357 154.261466 5.518471 C 159.652386 5.190585 165.125298 4.903684 170.659703 4.678263 C 176.194108 4.452841 181.769509 4.288898 187.385905 4.165941 C 192.981803 4.063476 198.618697 4.001998 204.255592 4.001998 C 209.892486 4.001998 215.52938 4.063476 221.145776 4.165941 C 226.762172 4.288898 232.337573 4.452841 237.871978 4.678263 C 243.406383 4.903684 248.858797 5.190585 254.270215 5.518471 C 259.661136 5.846357 264.970065 6.235722 270.176505 6.686565 C 275.382945 7.116916 280.486897 7.608745 285.467861 8.162053 C 290.428328 8.694868 295.265808 9.289161 299.959804 9.944933 C 304.653799 10.580213 309.163314 11.256478 313.529345 11.994221 C 317.895375 12.731965 322.076926 13.490202 326.053499 14.309917 C 330.050569 15.129632 333.822163 15.990333 337.409278 16.871527 C 340.996392 17.773214 344.337533 18.695394 347.473696 19.658559 C 350.609859 20.621725 353.520546 21.605383 356.164762 22.609534 C 358.829475 23.634178 361.248215 24.679315 363.400484 25.744945 C 365.552752 26.810575 367.459047 27.896698 369.098871 29.003313 C 370.738695 30.109929 372.09155 31.216544 373.198431 32.343653 C 374.305312 33.470761 375.125223 34.618363 375.678664 35.765964 C 376.232104 36.913565 376.519074 38.061167 376.519074 39.229261 Z M 376.519074 39.229261 " stroke="#000000" stroke-width="8" stroke-opacity="1" stroke-miterlimit="4"/></g><g clip-path="url(#b1c4ad81ee)"><path fill="#000000" d="M 58.796875 44.386719 C 58.894531 45.644531 62.128906 46.828125 63.253906 47.246094 C 65.273438 47.933594 67.328125 48.496094 69.414062 48.9375 C 69.570312 48.96875 69.632812 49.0625 69.605469 49.21875 C 69.578125 49.375 69.488281 49.441406 69.332031 49.421875 C 66.035156 48.945312 60.980469 48.296875 58.277344 46.304688 C 57.691406 45.839844 57.167969 45.160156 57.171875 44.3125 C 57.167969 44.074219 57.253906 43.875 57.425781 43.714844 C 57.59375 43.550781 57.796875 43.472656 58.03125 43.484375 C 58.265625 43.496094 58.460938 43.589844 58.617188 43.765625 C 58.769531 43.945312 58.835938 44.152344 58.8125 44.386719 Z M 58.796875 44.386719 " fill-opacity="1" fill-rule="nonzero"/></g><path fill="#000000" d="M 109.34375 50.851562 C 105.257812 51.320312 101.152344 51.539062 97.035156 51.613281 C 90.175781 51.703125 83.3125 51.433594 76.511719 50.488281 C 76.421875 50.476562 76.351562 50.4375 76.292969 50.367188 C 76.238281 50.292969 76.214844 50.214844 76.222656 50.125 C 76.234375 50.035156 76.273438 49.960938 76.34375 49.902344 C 76.410156 49.84375 76.492188 49.820312 76.582031 49.824219 C 84.75 50.398438 92.933594 50.625 101.125 50.589844 C 103.851562 50.570312 106.585938 50.539062 109.320312 50.492188 C 109.429688 50.492188 109.488281 50.546875 109.496094 50.660156 C 109.503906 50.773438 109.453125 50.835938 109.34375 50.851562 Z M 109.34375 50.851562 " fill-opacity="1" fill-rule="nonzero"/><path fill="#000000" d="M 134.753906 44.386719 C 134.632812 48.058594 125.0625 49.109375 122.203125 49.585938 C 122.113281 49.59375 122.03125 49.570312 121.960938 49.515625 C 121.890625 49.460938 121.84375 49.386719 121.832031 49.296875 C 121.816406 49.207031 121.832031 49.125 121.882812 49.050781 C 121.933594 48.976562 122 48.925781 122.089844 48.90625 L 125.304688 48.167969 C 126.367188 47.898438 127.421875 47.597656 128.453125 47.253906 C 129.925781 46.730469 131.46875 46.183594 132.632812 45.1875 C 132.875 44.960938 133.132812 44.671875 133.117188 44.382812 C 133.117188 44.15625 133.195312 43.964844 133.355469 43.804688 C 133.515625 43.644531 133.710938 43.5625 133.9375 43.5625 C 134.164062 43.5625 134.355469 43.644531 134.515625 43.804688 C 134.675781 43.964844 134.753906 44.15625 134.753906 44.382812 Z M 134.753906 44.386719 " fill-opacity="1" fill-rule="nonzero"/><path stroke-linecap="round" transform="matrix(0.190569, 0, 0, 0.190615, 57.028287, 19.276222)" fill="none" stroke-linejoin="round" d="M 376.519074 39.208768 L 376.519074 69.681683 C 376.519074 70.234991 376.45758 70.767806 376.334593 71.300621 " stroke="#000000" stroke-width="8" stroke-opacity="1" stroke-miterlimit="4"/><path stroke-linecap="round" transform="matrix(0.190569, 0, 0, 0.190615, 57.028287, 19.276222)" fill="none" stroke-linejoin="round" d="M 32.012607 69.681683 L 32.012607 39.208768 " stroke="#000000" stroke-width="8" stroke-opacity="1" stroke-miterlimit="4"/><path fill="#000000" d="M 100.113281 22.4375 C 93.339844 22.425781 86.550781 22.652344 79.832031 23.53125 C 77.570312 23.855469 70.304688 24.867188 69.242188 26.679688 C 69.214844 26.789062 69.242188 26.882812 69.320312 26.964844 C 69.457031 27.128906 69.613281 27.269531 69.796875 27.382812 C 70.664062 27.941406 71.75 28.269531 72.761719 28.558594 C 73.832031 28.851562 74.925781 29.082031 76.027344 29.28125 C 83.773438 30.585938 91.75 30.875 99.605469 30.699219 C 105.222656 30.613281 110.890625 30.238281 116.417969 29.261719 C 117.855469 28.972656 122.316406 28.117188 122.773438 26.78125 C 122.773438 26.679688 122.742188 26.585938 122.683594 26.5 C 122.503906 26.273438 122.289062 26.089844 122.039062 25.949219 C 121.332031 25.542969 120.589844 25.222656 119.808594 24.996094 C 114.964844 23.542969 109.859375 23.101562 104.824219 22.6875 C 104.746094 22.675781 104.679688 22.640625 104.628906 22.582031 C 104.578125 22.519531 104.554688 22.449219 104.558594 22.371094 C 104.566406 22.292969 104.597656 22.222656 104.65625 22.171875 C 104.710938 22.117188 104.78125 22.089844 104.859375 22.089844 C 109.40625 22.308594 113.949219 22.679688 118.414062 23.664062 C 119.808594 23.996094 121.273438 24.371094 122.546875 25.117188 C 123.628906 25.726562 124.28125 26.882812 123.210938 27.90625 C 119.769531 30.878906 106.996094 31.628906 102.191406 31.84375 C 93.390625 32.101562 84.511719 32.035156 75.808594 30.492188 C 74.679688 30.285156 73.554688 30.042969 72.4375 29.730469 C 71.292969 29.390625 70.171875 29.046875 69.132812 28.367188 C 67.957031 27.617188 67.605469 26.347656 68.8125 25.382812 C 70.027344 24.449219 71.511719 24.070312 72.949219 23.675781 C 81.863281 21.699219 91.050781 21.636719 100.132812 21.933594 C 100.203125 21.9375 100.261719 21.964844 100.308594 22.011719 C 100.355469 22.0625 100.378906 22.121094 100.375 22.191406 C 100.375 22.261719 100.347656 22.320312 100.296875 22.367188 C 100.25 22.414062 100.1875 22.4375 100.121094 22.433594 Z M 100.113281 22.4375 " fill-opacity="1" fill-rule="nonzero"/><g clip-path="url(#54fda71731)"><path stroke-linecap="round" transform="matrix(0.190569, 0, 0, 0.190615, 57.028287, 19.276222)" fill="none" stroke-linejoin="round" d="M 405.174993 704.243761 L 404.355081 131.160328 L 376.703554 71.300621 C 372.562999 89.990129 297.11061 104.888454 204.64505 104.888454 C 109.514776 104.888454 32.381568 89.129428 32.381568 69.681683 L 3.992119 131.160328 L 3.992119 711.764649 C 3.992119 727.769589 19.549947 742.524464 45.705135 754.287378 C 82.375693 770.80464 139.933506 781.440446 204.64505 781.440446 C 271.549858 781.440446 330.829485 770.066897 367.274567 752.565976 C 391.195496 741.110455 405.277482 727.011352 405.277482 711.764649 C 405.277482 709.510432 405.174993 708.731702 405.174993 704.243761 Z M 405.174993 704.243761 " stroke="#000000" stroke-width="8" stroke-opacity="1" stroke-miterlimit="4"/></g><path stroke-linecap="round" transform="matrix(0.190569, 0, 0, 0.190615, 57.028287, 19.276222)" fill="none" stroke-linejoin="round" d="M 264.047664 47.692821 C 264.047664 48.287115 263.678704 48.840423 262.920285 49.373237 C 262.161867 49.906052 261.075484 50.377389 259.681633 50.787246 C 258.287783 51.197104 256.668457 51.504497 254.844153 51.729919 C 253.019849 51.955341 251.113554 52.057805 249.145766 52.057805 C 247.15748 52.057805 245.251185 51.955341 243.426881 51.729919 C 241.602577 51.504497 240.003749 51.197104 238.589401 50.787246 C 237.195551 50.377389 236.129665 49.906052 235.371247 49.373237 C 234.612828 48.840423 234.22337 48.287115 234.22337 47.692821 C 234.22337 47.119021 234.612828 46.565713 235.371247 46.032898 C 236.129665 45.500083 237.195551 45.028747 238.589401 44.618889 C 240.003749 44.209031 241.602577 43.901638 243.426881 43.676216 C 245.251185 43.450795 247.15748 43.34833 249.145766 43.34833 C 251.113554 43.34833 253.019849 43.450795 254.844153 43.676216 C 256.668457 43.901638 258.287783 44.209031 259.681633 44.618889 C 261.075484 45.028747 262.161867 45.500083 262.920285 46.032898 C 263.678704 46.565713 264.047664 47.119021 264.047664 47.692821 Z M 264.047664 47.692821 " stroke="#000000" stroke-width="4" stroke-opacity="1" stroke-miterlimit="4"/><path stroke-linecap="round" transform="matrix(0.190569, 0, 0, 0.190615, 57.028287, 19.276222)" fill="none" stroke-linejoin="round" d="M 221.781208 41.9958 C 221.781208 41.9958 194.519138 31.687881 169.880787 36.339765 C 137.781237 42.323686 124.437172 58.840949 124.437172 58.840949 " stroke="#000000" stroke-width="5" stroke-opacity="1" stroke-miterlimit="4"/><path stroke-linecap="round" transform="matrix(0.190569, 0, 0, 0.190615, 57.028287, 19.276222)" fill="none" stroke-linejoin="round" d="M 309.819244 55.603073 C 290.530817 59.148342 265.093052 61.709952 236.334643 62.837061 C 227.705071 57.181025 222.908586 50.828232 224.240943 45.254168 C 226.680181 35.110192 248.817801 31.749359 273.661131 37.733281 C 289.813394 41.626928 303.116464 48.492044 309.819244 55.603073 Z M 309.819244 55.603073 " stroke="#000000" stroke-width="4.55" stroke-opacity="1" stroke-miterlimit="4"/><g clip-path="url(#463af3fa7d)"><path stroke-linecap="round" transform="matrix(0.190569, 0, 0, 0.190615, 57.028287, 19.276222)" fill="none" stroke-linejoin="round" d="M 47.570435 755.209558 L 47.570435 755.373501 C 47.570435 780.825659 117.980366 801.461991 204.870525 801.461991 C 287.702121 801.461991 355.570326 782.711005 361.719664 758.898276 " stroke="#000000" stroke-width="8.74" stroke-opacity="1" stroke-miterlimit="4"/></g><g clip-path="url(#f4f14ba016)"><path fill="#ff001c" d="M 125.398438 72.433594 C 125.960938 78.152344 123.328125 80.222656 120.164062 81.34375 C 117.390625 82.332031 116.292969 83.289062 115.066406 84.886719 L 115.929688 86.246094 C 116.320312 86.859375 116.523438 87.566406 116.523438 88.289062 L 116.523438 93.226562 C 116.523438 96.894531 115.011719 100.398438 112.347656 102.921875 L 109.027344 106.058594 C 107.652344 107.355469 106.6875 109.027344 106.253906 110.867188 L 106.03125 111.792969 L 107.296875 114.253906 C 107.660156 114.957031 107.753906 115.769531 107.5625 116.539062 L 106.03125 122.691406 L 103.113281 124.058594 L 100.664062 124.796875 L 99.0625 125.875 C 98.429688 126.300781 97.6875 126.53125 96.925781 126.53125 L 94.652344 126.53125 C 93.890625 126.53125 93.144531 126.300781 92.515625 125.875 L 90.910156 124.796875 L 88.464844 124.058594 L 85.542969 122.691406 L 84.011719 116.539062 C 83.820312 115.769531 83.917969 114.957031 84.277344 114.253906 L 85.542969 111.792969 L 85.324219 110.867188 C 84.886719 109.027344 83.921875 107.355469 82.546875 106.058594 L 79.230469 102.921875 C 76.5625 100.398438 75.050781 96.894531 75.050781 93.226562 L 75.050781 88.289062 C 75.050781 87.566406 75.257812 86.859375 75.644531 86.246094 L 76.507812 84.886719 C 75.28125 83.289062 74.1875 82.332031 71.410156 81.34375 C 68.25 80.222656 65.613281 78.152344 66.175781 72.433594 C 66.738281 66.710938 65.191406 61.90625 63.765625 57.964844 C 67.558594 61.449219 69.054688 65.308594 69.195312 69.660156 C 69.335938 74.011719 74.886719 75.660156 77.910156 75.871094 C 80.148438 76.027344 81.675781 76.722656 82.386719 77.375 L 82.65625 77.207031 C 83.167969 76.890625 83.742188 76.734375 84.3125 76.734375 C 84.9375 76.734375 85.558594 76.917969 86.09375 77.285156 C 86.628906 77.652344 87.261719 77.84375 87.914062 77.835938 L 92.683594 77.769531 C 93.425781 77.761719 94.109375 78.183594 94.429688 78.851562 L 95.789062 81.6875 L 97.144531 78.851562 C 97.464844 78.183594 98.148438 77.761719 98.894531 77.769531 L 103.664062 77.835938 L 103.707031 77.835938 C 104.339844 77.835938 104.960938 77.644531 105.484375 77.285156 C 106.511719 76.582031 107.859375 76.550781 108.917969 77.207031 L 109.191406 77.375 C 109.902344 76.722656 111.425781 76.027344 113.667969 75.871094 C 116.6875 75.660156 122.238281 74.011719 122.378906 69.660156 C 122.519531 65.308594 124.019531 61.449219 127.8125 57.964844 C 126.382812 61.90625 124.835938 66.710938 125.398438 72.433594 Z M 125.398438 72.433594 " fill-opacity="1" fill-rule="nonzero"/></g><path fill="#c3c4c6" d="M 102.636719 122.609375 C 101.851562 122.074219 100.769531 122.390625 100.402344 123.269531 L 100.277344 123.566406 C 100.574219 124.203125 100.738281 124.910156 100.738281 125.65625 C 100.738281 128.386719 98.519531 130.605469 95.789062 130.605469 C 93.058594 130.605469 90.835938 128.386719 90.835938 125.65625 C 90.835938 124.910156 91.003906 124.203125 91.300781 123.566406 L 91.175781 123.269531 C 90.804688 122.390625 89.726562 122.074219 88.941406 122.609375 C 88.523438 123.542969 88.289062 124.574219 88.289062 125.65625 C 88.289062 129.789062 91.652344 133.148438 95.789062 133.148438 C 99.921875 133.148438 103.285156 129.789062 103.285156 125.65625 C 103.285156 124.574219 103.050781 123.542969 102.636719 122.609375 Z M 102.636719 122.609375 " fill-opacity="1" fill-rule="nonzero"/><g clip-path="url(#893dbcb154)"><path fill="#fbfbf9" d="M 63.765625 57.964844 C 67.558594 61.449219 69.054688 65.308594 69.195312 69.660156 C 69.339844 74.011719 74.886719 75.660156 77.910156 75.871094 C 80.929688 76.082031 82.652344 77.273438 82.828125 78.011719 C 82.933594 79.695312 83.144531 85.554688 77.03125 85.589844 C 75.554688 83.554688 74.574219 82.46875 71.410156 81.34375 C 68.25 80.222656 65.617188 78.152344 66.175781 72.433594 C 66.738281 66.710938 65.191406 61.90625 63.765625 57.964844 Z M 63.765625 57.964844 " fill-opacity="1" fill-rule="nonzero"/></g><g clip-path="url(#29ea51ab91)"><path fill="#fbfbf9" d="M 125.398438 72.433594 C 125.960938 78.152344 123.328125 80.222656 120.164062 81.347656 C 117.003906 82.46875 116.019531 83.558594 114.546875 85.59375 C 108.433594 85.558594 108.644531 79.695312 108.75 78.011719 C 108.925781 77.277344 110.644531 76.082031 113.667969 75.871094 C 116.6875 75.660156 122.238281 74.011719 122.378906 69.660156 C 122.519531 65.308594 124.019531 61.449219 127.8125 57.964844 C 126.382812 61.90625 124.839844 66.714844 125.398438 72.433594 Z M 125.398438 72.433594 " fill-opacity="1" fill-rule="nonzero"/></g><path fill="#000000" d="M 72.347656 78.726562 C 72.125 78.597656 71.90625 78.480469 71.691406 78.351562 C 71.089844 78 70.460938 77.59375 70.027344 77.078125 C 69.414062 76.351562 69.179688 75.464844 68.90625 74.546875 C 68.878906 74.457031 68.804688 74.382812 68.703125 74.371094 C 68.570312 74.351562 68.449219 74.445312 68.429688 74.578125 C 68.355469 75.109375 68.386719 75.65625 68.523438 76.195312 C 68.925781 77.914062 70.546875 78.894531 72.183594 79.175781 C 72.445312 79.21875 72.578125 78.863281 72.347656 78.726562 Z M 72.347656 78.726562 " fill-opacity="1" fill-rule="nonzero"/><path fill="#000000" d="M 78.011719 83.070312 C 78.210938 83.234375 78.5 83 78.382812 82.769531 C 77.988281 82.003906 77.417969 81.335938 76.757812 80.785156 C 76.089844 80.234375 75.320312 79.804688 74.472656 79.617188 C 74.226562 79.5625 74.066406 79.878906 74.257812 80.042969 C 74.875 80.585938 75.527344 81.023438 76.160156 81.523438 C 76.796875 82.015625 77.378906 82.554688 78.011719 83.070312 Z M 78.011719 83.070312 " fill-opacity="1" fill-rule="nonzero"/><path fill="#000000" d="M 81.964844 91.429688 C 81.09375 90.878906 80.210938 90.339844 79.316406 89.828125 C 79.1875 89.753906 79.023438 89.773438 78.921875 89.886719 C 78.800781 90.015625 78.808594 90.21875 78.9375 90.339844 C 79.613281 90.964844 80.300781 91.570312 80.996094 92.164062 C 81.199219 92.335938 81.398438 92.507812 81.59375 92.683594 C 81.363281 94.558594 82.144531 96.4375 83.683594 97.59375 L 84.617188 98.292969 L 85.640625 99.519531 C 85.789062 100.1875 85.886719 100.867188 85.925781 101.550781 C 86.007812 104.058594 86.132812 106.578125 86.675781 109.035156 C 86.757812 109.375 87.242188 109.363281 87.3125 109.027344 C 87.703125 106.992188 87.808594 104.917969 87.84375 102.855469 C 88.058594 98.296875 85.855469 93.851562 81.964844 91.433594 Z M 81.964844 91.429688 " fill-opacity="1" fill-rule="nonzero"/><g clip-path="url(#ceeb74730c)"><path fill="#000000" d="M 128.035156 57.714844 C 127.910156 57.597656 127.714844 57.605469 127.597656 57.730469 C 127.09375 58.136719 126.609375 58.570312 126.152344 59.03125 C 123.53125 61.609375 121.941406 65.0625 121.605469 68.71875 C 121.570312 69.03125 121.546875 69.390625 121.527344 69.695312 C 121.371094 72.0625 119.1875 73.335938 117.207031 74.167969 C 116.113281 74.632812 114.933594 74.996094 113.75 75.140625 C 113.085938 75.21875 112.425781 75.347656 111.785156 75.542969 C 110.953125 75.808594 109.90625 76.203125 109.132812 76.800781 C 109.125 76.796875 109.113281 76.789062 109.105469 76.785156 C 107.90625 76.109375 106.355469 76.175781 105.214844 76.949219 C 104.726562 77.265625 104.140625 77.398438 103.566406 77.351562 C 102.902344 77.316406 102.234375 77.269531 101.570312 77.210938 C 100.703125 77.136719 99.820312 77.042969 98.953125 76.960938 C 97.925781 76.859375 96.875 77.414062 96.359375 78.3125 C 96.171875 78.648438 95.960938 79.054688 95.785156 79.402344 C 95.601562 79.019531 95.414062 78.628906 95.246094 78.296875 C 94.753906 77.378906 93.730469 76.789062 92.6875 76.816406 C 91.160156 76.867188 89.53125 76.9375 88.003906 77.027344 C 87.492188 77.074219 86.96875 76.976562 86.523438 76.710938 C 85.277344 75.9375 83.8125 75.917969 82.597656 76.640625 C 81.214844 75.660156 79.445312 75.457031 77.808594 75.375 C 75.996094 75.253906 74.144531 74.640625 72.640625 73.675781 C 71.175781 72.71875 69.992188 71.445312 69.882812 69.703125 C 69.871094 69.578125 69.859375 69.359375 69.851562 69.222656 C 69.765625 68.074219 69.585938 66.929688 69.273438 65.816406 C 68.542969 63.128906 67 60.6875 64.96875 58.792969 C 64.789062 58.625 64.433594 58.308594 64.246094 58.152344 C 64.101562 58.007812 63.847656 57.902344 63.675781 57.832031 L 63.671875 57.996094 C 63.667969 58.058594 63.671875 58.128906 63.683594 58.195312 C 63.695312 58.261719 63.714844 58.328125 63.734375 58.386719 L 63.773438 58.511719 C 64.136719 59.667969 64.472656 60.835938 64.746094 62.015625 C 65.285156 64.34375 65.625 66.738281 65.527344 69.128906 C 65.488281 69.632812 65.351562 70.132812 65.332031 70.640625 C 65.320312 71.125 65.296875 71.660156 65.269531 72.144531 C 65.003906 75.191406 65.574219 78.378906 68.1875 80.300781 C 69.144531 81.019531 70.257812 81.488281 71.382812 81.863281 C 73.382812 82.535156 74.777344 83.367188 75.746094 85.074219 C 75.664062 85.175781 75.582031 85.28125 75.5 85.386719 C 75.351562 85.574219 75.199219 85.773438 75.054688 85.96875 C 74.777344 86.351562 74.570312 86.78125 74.433594 87.238281 C 74.351562 87.515625 74.296875 87.800781 74.269531 88.085938 C 74.183594 89.460938 74.140625 90.824219 74.113281 92.199219 C 74.101562 92.6875 74.09375 93.433594 74.113281 93.921875 C 74.113281 94.050781 74.160156 94.582031 74.164062 94.691406 C 74.195312 94.898438 74.226562 95.242188 74.261719 95.457031 C 74.324219 95.84375 74.425781 96.332031 74.523438 96.714844 C 74.710938 97.464844 74.972656 98.191406 75.28125 98.898438 C 75.875 100.21875 76.683594 101.453125 77.660156 102.523438 C 78.105469 103.011719 78.605469 103.480469 79.101562 103.917969 C 79.5625 104.332031 80.761719 105.414062 81.242188 105.84375 C 81.632812 106.203125 82.25 106.726562 82.601562 107.109375 C 83.417969 107.984375 84.074219 109.007812 84.511719 110.121094 C 84.722656 110.644531 84.867188 111.191406 85.027344 111.734375 C 84.660156 112.378906 84.117188 113.332031 83.792969 113.910156 C 83.246094 114.847656 83.132812 115.902344 83.394531 116.953125 L 83.464844 117.304688 C 83.464844 117.304688 84.617188 122.921875 84.617188 122.921875 C 84.65625 123.210938 84.839844 123.46875 85.136719 123.558594 C 85.136719 123.558594 86.566406 123.984375 87.453125 124.25 C 87.375 124.710938 87.335938 125.179688 87.335938 125.65625 C 87.335938 130.3125 91.128906 134.101562 95.789062 134.101562 C 100.449219 134.101562 104.238281 130.3125 104.238281 125.65625 C 104.238281 125.101562 104.183594 124.554688 104.078125 124.015625 C 104.808594 123.722656 105.625 123.390625 106.242188 123.140625 C 106.359375 123.089844 106.457031 122.992188 106.496094 122.859375 C 106.988281 121.230469 107.566406 119.199219 108.035156 117.558594 L 108.28125 116.671875 C 108.523438 115.769531 108.425781 114.777344 108.023438 113.933594 L 107.820312 113.515625 C 107.511719 112.875 107.171875 112.175781 106.820312 111.472656 C 107.066406 111.085938 107.246094 110.660156 107.421875 110.246094 C 107.898438 108.949219 108.546875 107.695312 109.441406 106.632812 C 110.328125 105.601562 111.25 104.601562 112.246094 103.671875 C 112.917969 103.066406 113.621094 102.476562 114.234375 101.804688 C 114.507812 101.484375 114.78125 101.15625 115.015625 100.808594 C 115.160156 100.613281 115.292969 100.378906 115.429688 100.175781 C 115.464844 100.121094 115.53125 100.011719 115.558594 99.957031 C 116.074219 99.082031 116.503906 98.144531 116.816406 97.179688 C 116.972656 96.71875 117.117188 96.179688 117.214844 95.699219 C 117.28125 95.410156 117.339844 94.988281 117.386719 94.6875 C 117.445312 94.1875 117.476562 93.660156 117.488281 93.15625 C 117.496094 91.566406 117.496094 89.945312 117.410156 88.359375 C 117.382812 87.492188 117.097656 86.628906 116.578125 85.933594 C 116.320312 85.597656 116.046875 85.273438 115.769531 84.957031 C 115.996094 84.703125 116.226562 84.457031 116.464844 84.230469 C 117.519531 83.210938 118.820312 82.601562 120.203125 82.105469 C 120.390625 82.035156 120.863281 81.871094 121.042969 81.792969 C 125.3125 80.128906 126.554688 76.683594 126.113281 72.363281 C 125.898438 69.96875 126.070312 67.558594 126.414062 65.1875 C 126.777344 62.777344 127.4375 60.421875 128.113281 58.070312 C 128.160156 57.949219 128.140625 57.808594 128.039062 57.714844 Z M 71.972656 81.027344 C 68.601562 79.851562 66.941406 77.925781 66.976562 74.28125 C 66.972656 73.449219 67.097656 72.597656 67.171875 71.769531 C 67.210938 71.230469 67.273438 70.6875 67.203125 70.148438 C 67.160156 69.789062 67.078125 69.433594 67.023438 69.074219 C 66.972656 68.71875 66.945312 68.363281 66.890625 68.007812 C 66.472656 64.855469 65.480469 61.820312 64.300781 58.878906 C 64.289062 58.847656 64.265625 58.792969 64.238281 58.722656 C 64.375 58.878906 64.519531 59.046875 64.601562 59.140625 C 66.953125 61.890625 68.328125 65.222656 68.488281 68.835938 C 68.503906 69.101562 68.515625 69.503906 68.519531 69.769531 C 68.539062 71.207031 69.234375 72.65625 70.292969 73.613281 C 72.28125 75.40625 75.160156 76.03125 77.726562 76.34375 C 78.914062 76.445312 80.128906 76.773438 81.148438 77.351562 C 81.519531 77.578125 81.886719 77.804688 82.113281 78.148438 C 82.113281 78.148438 82.117188 78.148438 82.117188 78.152344 C 82.1875 79.414062 82.285156 80.703125 81.925781 81.925781 C 81.308594 83.976562 79.449219 84.949219 77.429688 84.703125 C 76.734375 84.074219 76.078125 83.394531 75.320312 82.835938 C 74.304688 82.0625 73.15625 81.488281 71.96875 81.027344 Z M 95.789062 132.195312 C 92.179688 132.195312 89.246094 129.261719 89.246094 125.65625 C 89.246094 124.847656 89.390625 124.058594 89.683594 123.3125 C 89.789062 123.289062 89.886719 123.304688 89.945312 123.324219 C 90.027344 123.347656 90.171875 123.410156 90.261719 123.570312 C 90.011719 124.238281 89.882812 124.9375 89.882812 125.65625 C 89.882812 128.910156 92.53125 131.558594 95.789062 131.558594 C 99.046875 131.558594 101.695312 128.910156 101.695312 125.65625 C 101.695312 124.9375 101.566406 124.238281 101.3125 123.570312 C 101.40625 123.410156 101.550781 123.347656 101.632812 123.324219 C 101.691406 123.304688 101.785156 123.289062 101.894531 123.3125 C 102.183594 124.058594 102.332031 124.847656 102.332031 125.65625 C 102.332031 129.261719 99.398438 132.195312 95.789062 132.195312 Z M 95.789062 127.484375 L 96.925781 127.484375 C 97.878906 127.484375 98.804688 127.199219 99.59375 126.667969 L 99.667969 126.617188 C 99.238281 128.355469 97.660156 129.652344 95.789062 129.652344 C 93.914062 129.652344 92.339844 128.355469 91.90625 126.617188 L 91.980469 126.667969 C 92.773438 127.199219 93.695312 127.484375 94.652344 127.484375 Z M 106.667969 117.21875 C 106.328125 118.800781 105.917969 120.761719 105.597656 122.371094 C 105.082031 122.640625 104.464844 122.964844 103.894531 123.273438 C 103.789062 122.914062 103.660156 122.566406 103.507812 122.222656 C 103.433594 122.0625 103.320312 121.921875 103.175781 121.824219 C 102.5625 121.40625 101.804688 121.285156 101.09375 121.496094 C 100.382812 121.707031 99.808594 122.214844 99.523438 122.898438 L 99.394531 123.199219 C 99.292969 123.449219 99.296875 123.726562 99.410156 123.972656 C 99.476562 124.105469 99.53125 124.242188 99.578125 124.378906 L 98.527344 125.085938 C 98.054688 125.40625 97.5 125.578125 96.925781 125.578125 L 94.652344 125.578125 C 94.078125 125.578125 93.523438 125.40625 93.050781 125.085938 L 92 124.378906 C 92.046875 124.242188 92.101562 124.105469 92.164062 123.972656 C 92.28125 123.726562 92.285156 123.449219 92.179688 123.199219 L 92.054688 122.898438 C 91.769531 122.214844 91.195312 121.703125 90.484375 121.496094 C 89.773438 121.285156 89.015625 121.40625 88.402344 121.824219 C 88.257812 121.921875 88.144531 122.058594 88.070312 122.21875 C 87.953125 122.484375 87.847656 122.753906 87.757812 123.027344 C 87.140625 122.617188 86.726562 122.34375 86.367188 122.105469 C 86.007812 120.882812 84.855469 116.960938 84.855469 116.960938 C 84.753906 116.585938 84.582031 116.128906 84.574219 115.730469 C 84.558594 115.347656 84.625 114.957031 84.777344 114.597656 L 85.96875 112.007812 C 86.015625 111.910156 86.03125 111.796875 86.011719 111.679688 C 85.953125 111.367188 85.894531 111.050781 85.835938 110.734375 C 85.484375 108.894531 84.585938 107.164062 83.300781 105.804688 C 83.078125 105.570312 82.496094 105 82.265625 104.765625 C 81.8125 104.320312 80.65625 103.167969 80.21875 102.738281 C 79.679688 102.207031 79.140625 101.648438 78.691406 101.042969 C 78.425781 100.707031 78.160156 100.300781 77.933594 99.933594 C 77.796875 99.71875 77.671875 99.476562 77.542969 99.257812 C 77.507812 99.183594 77.339844 98.84375 77.292969 98.757812 C 76.464844 97.015625 76.019531 95.085938 76.007812 93.15625 C 76 91.433594 75.914062 89.683594 75.84375 87.964844 C 75.859375 87.492188 75.976562 87.023438 76.1875 86.597656 C 76.238281 86.496094 76.289062 86.394531 76.34375 86.292969 C 76.457031 86.445312 76.640625 86.542969 76.84375 86.542969 L 77.039062 86.542969 C 79.109375 86.210938 81.058594 85.449219 82.191406 83.582031 C 83.195312 81.90625 83.671875 79.910156 83.542969 77.964844 C 83.519531 77.78125 83.457031 77.613281 83.371094 77.457031 C 84.039062 77.261719 84.785156 77.328125 85.390625 77.675781 C 85.484375 77.730469 85.640625 77.835938 85.726562 77.902344 C 86.386719 78.382812 87.210938 78.636719 88.027344 78.636719 C 89.320312 78.675781 90.726562 78.707031 92.023438 78.714844 C 92.144531 78.71875 92.589844 78.71875 92.703125 78.722656 C 93.058594 78.730469 93.394531 78.953125 93.542969 79.273438 C 93.957031 80.144531 94.414062 81.089844 94.855469 81.953125 C 94.960938 83.4375 95.472656 90.710938 95.472656 90.710938 C 95.507812 91.105469 96.074219 91.101562 96.109375 90.710938 C 96.109375 90.710938 96.308594 87.882812 96.484375 85.390625 C 96.589844 83.898438 96.6875 82.527344 96.726562 81.960938 C 97.023438 81.425781 97.289062 80.871094 97.546875 80.316406 C 97.664062 80.058594 97.839844 79.664062 97.949219 79.402344 L 98 79.289062 L 98.015625 79.246094 C 98.066406 79.117188 98.140625 79 98.242188 78.898438 C 98.414062 78.71875 98.675781 78.597656 98.933594 78.578125 L 99.058594 78.570312 C 99.886719 78.515625 100.730469 78.445312 101.558594 78.398438 C 102.222656 78.359375 102.890625 78.328125 103.554688 78.3125 C 103.929688 78.3125 104.308594 78.261719 104.667969 78.152344 C 105.03125 78.039062 105.378906 77.875 105.691406 77.660156 C 105.792969 77.589844 105.957031 77.488281 106.066406 77.429688 C 106.816406 77.050781 107.742188 77.0625 108.472656 77.46875 C 108.453125 77.496094 108.4375 77.523438 108.417969 77.546875 C 108.351562 77.664062 108.269531 77.820312 108.253906 77.980469 C 107.992188 79.90625 108.011719 82.011719 109.226562 83.6875 C 109.960938 84.722656 110.910156 85.3125 111.972656 85.660156 L 112.792969 87.023438 C 113.59375 88.347656 113.9375 89.898438 113.78125 91.433594 C 113.289062 96.273438 111.167969 100.800781 107.757812 104.273438 L 107.726562 104.308594 C 107.332031 104.707031 106.710938 104.777344 106.238281 104.476562 C 105.746094 104.160156 105.558594 103.53125 105.792969 102.996094 L 106.367188 101.707031 C 106.898438 100.511719 107.691406 99.449219 108.6875 98.597656 C 110.308594 97.214844 111.128906 95.109375 110.878906 92.996094 L 112.25 90.714844 L 112.246094 90.710938 C 112.378906 90.589844 112.511719 90.464844 112.640625 90.339844 C 112.914062 90.070312 112.589844 89.65625 112.261719 89.828125 C 111.058594 90.53125 109.851562 91.214844 108.722656 92.035156 C 106.480469 93.707031 104.851562 96.179688 104.148438 98.902344 C 103.875 99.964844 103.730469 101.070312 103.730469 102.167969 C 103.699219 104.4375 103.683594 106.753906 103.683594 109.019531 C 103.679688 109.167969 103.710938 109.3125 103.785156 109.449219 C 104.355469 110.492188 105.851562 113.238281 106.394531 114.246094 L 106.609375 114.640625 C 106.773438 114.945312 106.875 115.289062 106.902344 115.632812 C 106.960938 116.089844 106.761719 116.765625 106.671875 117.21875 Z M 124.574219 68.699219 C 124.511719 69.96875 124.5625 71.238281 124.6875 72.503906 C 124.972656 75.445312 124.46875 78.28125 121.695312 79.847656 C 121.085938 80.207031 120.371094 80.5 119.699219 80.742188 C 117.164062 81.660156 115.636719 82.832031 114.25 85.09375 C 112.664062 85.128906 111.128906 84.371094 110.351562 82.960938 C 109.609375 81.628906 109.25 79.664062 109.246094 78.089844 C 109.28125 77.988281 109.34375 77.902344 109.421875 77.820312 C 109.5 77.78125 109.570312 77.714844 109.617188 77.640625 L 109.621094 77.636719 C 110.304688 77.097656 111.1875 76.839844 112.054688 76.710938 C 112.613281 76.625 113.179688 76.589844 113.742188 76.585938 C 114.460938 76.558594 115.167969 76.476562 115.875 76.363281 C 118.609375 75.941406 121.476562 74.59375 122.71875 71.960938 C 123.039062 71.277344 123.207031 70.519531 123.222656 69.777344 C 123.234375 69.171875 123.257812 68.539062 123.316406 67.9375 C 123.492188 66.121094 123.976562 64.34375 124.785156 62.707031 C 125.328125 61.609375 126.003906 60.585938 126.765625 59.636719 C 125.609375 62.535156 124.742188 65.574219 124.574219 68.699219 Z M 124.574219 68.699219 " fill-opacity="1" fill-rule="nonzero"/></g><path fill="#000000" d="M 114.125 78.148438 C 113.875 78.074219 113.613281 78.042969 113.355469 78.035156 C 112.828125 78.027344 112.300781 78.109375 111.816406 78.332031 C 111.578125 78.445312 111.34375 78.59375 111.15625 78.808594 C 111.117188 78.855469 111.09375 78.917969 111.09375 78.980469 C 111.09375 79.128906 111.222656 79.246094 111.371094 79.234375 C 111.863281 79.222656 112.296875 79.132812 112.761719 79.027344 C 113.230469 78.914062 113.714844 78.8125 114.160156 78.621094 C 114.367188 78.527344 114.347656 78.207031 114.125 78.148438 Z M 114.125 78.148438 " fill-opacity="1" fill-rule="nonzero"/><path fill="#000000" d="M 122.734375 74.398438 C 122.28125 74.757812 121.828125 75.09375 121.355469 75.398438 C 120.40625 76.019531 119.394531 76.503906 118.359375 76.964844 C 117.835938 77.199219 117.308594 77.421875 116.777344 77.675781 C 116.539062 77.792969 116.632812 78.152344 116.898438 78.136719 C 119.234375 77.921875 121.71875 76.660156 123.082031 74.726562 C 123.234375 74.5 122.949219 74.230469 122.734375 74.402344 Z M 122.734375 74.398438 " fill-opacity="1" fill-rule="nonzero"/></svg>