<svg xmlns="http://www.w3.org/2000/svg" xmlns:xlink="http://www.w3.org/1999/xlink" width="256" zoomAndPan="magnify" viewBox="0 0 192 191.999996" height="256" preserveAspectRatio="xMidYMid meet" version="1.0"><defs><clipPath id="c6344cf836"><path d="M 22.464844 25 L 169.464844 25 L 169.464844 172.949219 L 22.464844 172.949219 Z M 22.464844 25 " clip-rule="nonzero"/></clipPath><clipPath id="91c999e6ac"><path d="M 75 19.199219 L 154 19.199219 L 154 60 L 75 60 Z M 75 19.199219 " clip-rule="nonzero"/></clipPath><clipPath id="28031e004f"><path d="M 32 19.199219 L 81 19.199219 L 81 60 L 32 60 Z M 32 19.199219 " clip-rule="nonzero"/></clipPath><clipPath id="ccd07ea5d1"><path d="M 138 67 L 169.464844 67 L 169.464844 128 L 138 128 Z M 138 67 " clip-rule="nonzero"/></clipPath><clipPath id="d9a16b9b1a"><path d="M 22.464844 65 L 93 65 L 93 172.949219 L 22.464844 172.949219 Z M 22.464844 65 " clip-rule="nonzero"/></clipPath></defs><g clip-path="url(#c6344cf836)"><path fill="#47354f" d="M 147.660156 151.660156 C 161.09375 138.328125 169.425781 119.828125 169.425781 99.378906 C 169.425781 58.75 136.535156 25.804688 95.964844 25.804688 C 55.394531 25.804688 22.5 58.75 22.5 99.378906 C 22.5 140.007812 55.394531 172.949219 95.964844 172.949219 C 103.910156 172.949219 111.527344 171.6875 118.691406 169.347656 Z M 147.660156 151.660156 " fill-opacity="1" fill-rule="nonzero"/></g><path fill="#deeeff" d="M 109.578125 68.207031 L 85.980469 68.207031 C 85.167969 69.648438 84.480469 71.570312 84.71875 73.671875 C 85.019531 76.40625 86.847656 78.808594 90.148438 80.789062 C 95.664062 84.152344 96.773438 93.550781 97.824219 102.652344 C 98.753906 110.550781 99.621094 117.996094 103.25 121.628906 C 103.609375 121.992188 103.878906 122.320312 104.121094 122.652344 L 109.578125 122.652344 C 115.363281 122.652344 120.070312 117.9375 120.070312 112.140625 L 120.070312 78.71875 C 120.070312 72.921875 115.363281 68.207031 109.578125 68.207031 Z M 109.578125 68.207031 " fill-opacity="1" fill-rule="nonzero"/><path fill="#bec8f7" d="M 76.203125 68.207031 C 70.417969 68.207031 65.707031 72.921875 65.707031 78.71875 L 65.707031 112.140625 C 65.707031 117.9375 70.417969 122.652344 76.203125 122.652344 L 104.660156 122.652344 C 104.390625 122.199219 104.03125 121.75 103.582031 121.300781 C 95.84375 113.550781 100.882812 86.765625 90.386719 80.398438 C 83.429688 76.195312 84.808594 71.152344 86.519531 68.207031 Z M 76.203125 68.207031 " fill-opacity="1" fill-rule="nonzero"/><path fill="#ff4155" d="M 108.136719 95.445312 C 108.136719 96.445312 108.039062 97.4375 107.84375 98.421875 C 107.648438 99.402344 107.359375 100.355469 106.976562 101.28125 C 106.597656 102.207031 106.125 103.085938 105.570312 103.917969 C 105.015625 104.753906 104.382812 105.523438 103.675781 106.230469 C 102.96875 106.941406 102.199219 107.570312 101.367188 108.128906 C 100.535156 108.683594 99.660156 109.15625 98.734375 109.539062 C 97.8125 109.921875 96.859375 110.210938 95.878906 110.40625 C 94.894531 110.601562 93.90625 110.699219 92.90625 110.699219 C 91.90625 110.699219 90.914062 110.601562 89.933594 110.40625 C 88.953125 110.210938 88 109.921875 87.078125 109.539062 C 86.152344 109.15625 85.273438 108.683594 84.441406 108.128906 C 83.609375 107.570312 82.839844 106.941406 82.132812 106.230469 C 81.425781 105.523438 80.796875 104.753906 80.238281 103.917969 C 79.683594 103.085938 79.214844 102.207031 78.832031 101.28125 C 78.449219 100.355469 78.160156 99.402344 77.964844 98.421875 C 77.769531 97.4375 77.671875 96.445312 77.671875 95.445312 C 77.671875 94.441406 77.769531 93.449219 77.964844 92.46875 C 78.160156 91.484375 78.449219 90.53125 78.832031 89.605469 C 79.214844 88.679688 79.683594 87.800781 80.238281 86.96875 C 80.796875 86.136719 81.425781 85.367188 82.132812 84.65625 C 82.839844 83.949219 83.609375 83.316406 84.441406 82.761719 C 85.273438 82.203125 86.152344 81.734375 87.078125 81.351562 C 88 80.96875 88.953125 80.679688 89.933594 80.484375 C 90.914062 80.289062 91.90625 80.191406 92.90625 80.191406 C 93.90625 80.191406 94.894531 80.289062 95.878906 80.484375 C 96.859375 80.679688 97.8125 80.96875 98.734375 81.351562 C 99.660156 81.734375 100.535156 82.203125 101.367188 82.761719 C 102.199219 83.316406 102.96875 83.949219 103.675781 84.65625 C 104.382812 85.367188 105.015625 86.136719 105.570312 86.96875 C 106.125 87.800781 106.597656 88.679688 106.976562 89.605469 C 107.359375 90.53125 107.648438 91.484375 107.84375 92.46875 C 108.039062 93.449219 108.136719 94.441406 108.136719 95.445312 Z M 108.136719 95.445312 " fill-opacity="1" fill-rule="nonzero"/><path fill="#ff7186" d="M 103.582031 90.667969 C 103.582031 91.171875 103.53125 91.667969 103.433594 92.15625 C 103.335938 92.648438 103.191406 93.125 103 93.589844 C 102.808594 94.050781 102.574219 94.492188 102.296875 94.90625 C 102.019531 95.324219 101.703125 95.710938 101.347656 96.0625 C 100.996094 96.417969 100.609375 96.734375 100.195312 97.011719 C 99.78125 97.289062 99.339844 97.523438 98.878906 97.714844 C 98.417969 97.910156 97.941406 98.054688 97.449219 98.152344 C 96.960938 98.25 96.464844 98.296875 95.964844 98.296875 C 95.464844 98.296875 94.96875 98.25 94.476562 98.152344 C 93.988281 98.054688 93.511719 97.910156 93.050781 97.714844 C 92.585938 97.523438 92.148438 97.289062 91.734375 97.011719 C 91.316406 96.734375 90.933594 96.417969 90.578125 96.0625 C 90.226562 95.710938 89.910156 95.324219 89.632812 94.90625 C 89.351562 94.492188 89.117188 94.050781 88.925781 93.589844 C 88.734375 93.125 88.589844 92.648438 88.492188 92.15625 C 88.398438 91.667969 88.347656 91.171875 88.347656 90.667969 C 88.347656 90.167969 88.398438 89.671875 88.492188 89.183594 C 88.589844 88.691406 88.734375 88.214844 88.925781 87.75 C 89.117188 87.289062 89.351562 86.847656 89.632812 86.433594 C 89.910156 86.015625 90.226562 85.628906 90.578125 85.277344 C 90.933594 84.921875 91.316406 84.605469 91.734375 84.328125 C 92.148438 84.050781 92.585938 83.816406 93.050781 83.621094 C 93.511719 83.429688 93.988281 83.285156 94.476562 83.1875 C 94.96875 83.089844 95.464844 83.042969 95.964844 83.042969 C 96.464844 83.042969 96.960938 83.089844 97.449219 83.1875 C 97.941406 83.285156 98.417969 83.429688 98.878906 83.621094 C 99.339844 83.816406 99.78125 84.050781 100.195312 84.328125 C 100.609375 84.605469 100.996094 84.921875 101.347656 85.277344 C 101.703125 85.628906 102.019531 86.015625 102.296875 86.433594 C 102.574219 86.847656 102.808594 87.289062 103 87.75 C 103.191406 88.214844 103.335938 88.691406 103.433594 89.183594 C 103.53125 89.671875 103.582031 90.167969 103.582031 90.667969 Z M 103.582031 90.667969 " fill-opacity="1" fill-rule="nonzero"/><path fill="#ffc7ab" d="M 125.621094 157.996094 C 131.855469 156.945312 140.28125 153.820312 145.589844 144.902344 C 145.648438 141.570312 147.269531 136.855469 144.511719 129.289062 C 143.761719 127.214844 138.453125 112.621094 136.503906 107.246094 C 135.574219 104.664062 132.695312 103.34375 130.148438 104.273438 L 129.699219 104.421875 C 127.117188 105.355469 125.800781 108.238281 126.730469 110.789062 L 125.589844 107.636719 C 124.691406 105.144531 122.082031 103.613281 119.472656 104.214844 C 116.382812 104.933594 114.703125 108.175781 115.753906 111.058594 L 115.394531 110.070312 C 114.496094 107.578125 111.886719 106.042969 109.277344 106.644531 C 106.1875 107.367188 104.511719 110.609375 105.558594 113.492188 L 99.890625 97.90625 C 98.992188 95.414062 96.382812 93.882812 93.773438 94.484375 C 90.6875 95.203125 89.007812 98.449219 90.058594 101.332031 L 99.503906 127.335938 C 99.621094 127.636719 99.5625 127.996094 99.382812 128.238281 L 101.152344 132.710938 C 101.691406 134.0625 101.03125 135.203125 100.34375 135.773438 C 99.621094 136.375 98.421875 136.703125 97.253906 135.925781 C 96.082031 135.144531 95.09375 134.121094 94.316406 132.859375 C 92.574219 138.054688 94.015625 143.820312 98.003906 147.636719 C 101.902344 151.238281 97.074219 147.484375 112.9375 157.515625 C 113.207031 157.695312 113.476562 157.875 113.714844 158.085938 C 115.574219 158.445312 120.191406 158.894531 125.621094 157.996094 Z M 125.621094 157.996094 " fill-opacity="1" fill-rule="nonzero"/><path fill="#fce4d9" d="M 92.035156 95.175781 L 94.316406 94.332031 C 95.632812 93.851562 97.074219 94.542969 97.554688 95.835938 L 99.113281 100.128906 C 99.59375 101.449219 98.902344 102.890625 97.613281 103.371094 L 95.335938 104.214844 C 94.015625 104.695312 92.574219 104.003906 92.097656 102.710938 L 90.535156 98.417969 C 90.058594 97.125 90.714844 95.65625 92.035156 95.175781 Z M 92.035156 95.175781 " fill-opacity="1" fill-rule="nonzero"/><g clip-path="url(#91c999e6ac)"><path fill="#ff4155" d="M 145.199219 19.199219 L 78.632812 19.199219 C 77.792969 19.769531 76.445312 20.941406 76.171875 22.59375 C 75.964844 23.945312 76.535156 25.296875 77.851562 26.617188 C 79.171875 27.9375 79.742188 29.109375 79.5625 30.101562 C 79.320312 31.273438 78.003906 31.84375 78.003906 31.84375 L 77.734375 31.960938 L 77.734375 52.414062 C 77.132812 52.832031 75.484375 54.183594 75.363281 56.167969 C 75.304688 57.367188 75.8125 58.570312 76.894531 59.738281 L 145.230469 59.738281 C 149.667969 59.738281 153.265625 56.136719 153.265625 51.691406 L 153.265625 27.246094 C 153.234375 22.804688 149.636719 19.199219 145.199219 19.199219 Z M 145.199219 19.199219 " fill-opacity="1" fill-rule="nonzero"/></g><g clip-path="url(#28031e004f)"><path fill="#e80054" d="M 79.472656 19.199219 L 40.582031 19.199219 C 36.144531 19.199219 32.546875 22.804688 32.546875 27.246094 L 32.546875 51.660156 C 32.546875 56.105469 36.144531 59.710938 40.582031 59.710938 L 77.523438 59.710938 C 73.324219 55.625 78.183594 52.621094 78.183594 52.621094 L 78.183594 32.234375 C 78.183594 32.234375 82.410156 30.492188 78.183594 26.285156 C 73.953125 22.054688 79.472656 19.199219 79.472656 19.199219 Z M 79.472656 19.199219 " fill-opacity="1" fill-rule="nonzero"/></g><path fill="#deeeff" d="M 78.152344 46.675781 L 72.574219 46.675781 L 72.574219 42.441406 L 77.554688 42.441406 C 79.203125 42.441406 80.523438 41.121094 80.523438 39.46875 C 80.523438 37.816406 79.203125 36.496094 77.554688 36.496094 L 72.574219 36.496094 L 72.574219 32.234375 L 78.183594 32.234375 C 79.832031 32.234375 81.152344 30.910156 81.152344 29.261719 C 81.152344 27.609375 79.832031 26.285156 78.183594 26.285156 L 69.578125 26.285156 C 67.929688 26.285156 66.609375 27.609375 66.609375 29.261719 L 66.609375 49.648438 C 66.609375 51.300781 67.929688 52.621094 69.578125 52.621094 L 78.152344 52.621094 C 79.800781 52.621094 81.121094 51.300781 81.121094 49.648438 C 81.121094 48 79.800781 46.675781 78.152344 46.675781 Z M 78.152344 46.675781 " fill-opacity="1" fill-rule="nonzero"/><path fill="#deeeff" d="M 116.292969 46.675781 L 110.6875 46.675781 L 110.6875 42.441406 L 115.664062 42.441406 C 117.3125 42.441406 118.632812 41.121094 118.632812 39.46875 C 118.632812 37.816406 117.3125 36.496094 115.664062 36.496094 L 110.6875 36.496094 L 110.6875 32.234375 L 116.292969 32.234375 C 117.941406 32.234375 119.261719 30.910156 119.261719 29.261719 C 119.261719 27.609375 117.941406 26.285156 116.292969 26.285156 L 107.71875 26.285156 C 106.070312 26.285156 104.75 27.609375 104.75 29.261719 L 104.75 49.648438 C 104.75 51.300781 106.070312 52.621094 107.71875 52.621094 L 116.292969 52.621094 C 117.941406 52.621094 119.261719 51.300781 119.261719 49.648438 C 119.261719 48 117.941406 46.675781 116.292969 46.675781 Z M 116.292969 46.675781 " fill-opacity="1" fill-rule="nonzero"/><path fill="#deeeff" d="M 100.851562 28.988281 C 100.640625 28.808594 95.875 24.875 90.058594 26.617188 C 87.058594 27.519531 84.960938 29.890625 84.539062 32.804688 C 84.148438 35.535156 85.320312 38.179688 87.628906 39.679688 C 87.75 39.769531 87.898438 39.832031 88.046875 39.890625 C 88.167969 39.949219 91.015625 41.210938 94.195312 42.382812 C 94.824219 42.621094 96.863281 43.464844 96.625 44.726562 C 96.445312 45.6875 95.183594 46.738281 93.445312 46.738281 C 91.527344 46.738281 89.695312 45.984375 88.527344 44.695312 C 87.566406 43.675781 86.039062 43.34375 84.839844 44.035156 C 83.128906 45.023438 82.832031 47.246094 84.089844 48.628906 C 86.398438 51.179688 89.816406 52.652344 93.445312 52.652344 C 97.972656 52.652344 101.78125 49.738281 102.5 45.746094 C 103.039062 42.714844 101.691406 38.75 96.265625 36.765625 C 93.804688 35.867188 91.527344 34.875 90.746094 34.546875 C 90.386719 34.246094 90.386719 33.824219 90.417969 33.613281 C 90.445312 33.3125 90.65625 32.625 91.765625 32.292969 C 94.464844 31.480469 97.011719 33.523438 97.042969 33.523438 C 98.332031 34.453125 100.101562 34.214844 101.089844 32.953125 C 102.050781 31.8125 102.019531 30.039062 100.851562 28.988281 Z M 100.851562 28.988281 " fill-opacity="1" fill-rule="nonzero"/><path fill="#deeeff" d="M 136.324219 26.195312 L 124.988281 26.195312 C 123.339844 26.195312 122.019531 27.519531 122.019531 29.167969 C 122.019531 30.820312 123.339844 32.144531 124.988281 32.144531 L 127.660156 32.144531 L 127.660156 49.738281 C 127.660156 51.390625 128.976562 52.710938 130.625 52.710938 C 132.277344 52.710938 133.59375 51.390625 133.59375 49.738281 L 133.59375 32.144531 L 136.324219 32.144531 C 137.972656 32.144531 139.292969 30.820312 139.292969 29.167969 C 139.292969 27.519531 137.941406 26.195312 136.324219 26.195312 Z M 136.324219 26.195312 " fill-opacity="1" fill-rule="nonzero"/><path fill="#deeeff" d="M 58.003906 42.292969 C 61.242188 41.089844 63.550781 38.058594 63.550781 34.515625 C 63.550781 29.921875 59.683594 26.195312 54.945312 26.195312 L 49.488281 26.195312 C 47.835938 26.195312 46.519531 27.519531 46.519531 29.167969 L 46.519531 49.738281 C 46.519531 51.390625 47.835938 52.710938 49.488281 52.710938 C 51.136719 52.710938 52.457031 51.390625 52.457031 49.738281 L 52.457031 44.996094 L 58.363281 51.722656 C 58.960938 52.382812 59.773438 52.742188 60.582031 52.742188 C 61.269531 52.742188 61.992188 52.503906 62.53125 51.992188 C 63.761719 50.910156 63.878906 49.019531 62.800781 47.789062 Z M 54.945312 32.144531 C 56.382812 32.144531 57.613281 33.222656 57.613281 34.515625 C 57.613281 35.804688 56.382812 36.886719 54.945312 36.886719 C 54.34375 36.886719 53.414062 36.886719 52.484375 36.886719 C 52.484375 35.988281 52.484375 35.054688 52.484375 34.515625 C 52.484375 34.035156 52.484375 33.105469 52.484375 32.144531 Z M 54.945312 32.144531 " fill-opacity="1" fill-rule="nonzero"/><g clip-path="url(#ccd07ea5d1)"><path fill="#56415e" d="M 138.574219 84.421875 C 138.574219 100.398438 151.496094 119.859375 163.699219 127.90625 C 167.390625 119.136719 169.429688 109.5 169.429688 99.410156 C 169.429688 87.996094 166.820312 77.1875 162.203125 67.546875 C 153.355469 68.117188 138.574219 71.089844 138.574219 84.421875 Z M 138.574219 84.421875 " fill-opacity="1" fill-rule="nonzero"/></g><g clip-path="url(#d9a16b9b1a)"><path fill="#56415e" d="M 71.078125 140.21875 C 53.085938 133.3125 50.085938 117.394531 50.085938 91.78125 C 50.085938 75.355469 38.722656 68.539062 30.597656 65.777344 C 25.410156 75.835938 22.5 87.277344 22.5 99.378906 C 22.5 138.65625 53.265625 170.757812 91.976562 172.828125 C 95.753906 159.046875 86.007812 145.953125 71.078125 140.21875 Z M 71.078125 140.21875 " fill-opacity="1" fill-rule="nonzero"/></g><path fill="#ffaa7b" d="M 101.570312 132.652344 L 99.53125 127.425781 C 99.710938 127.9375 99.441406 128.507812 98.933594 128.65625 C 97.582031 129.078125 95.542969 129.796875 94.585938 132.230469 C 94.433594 132.652344 94.285156 133.070312 94.164062 133.492188 C 95.003906 134.753906 95.992188 135.683594 97.011719 136.375 C 99.503906 138.054688 102.679688 135.472656 101.570312 132.652344 Z M 101.570312 132.652344 " fill-opacity="1" fill-rule="nonzero"/><path fill="#ffaa7b" d="M 115.246094 160.429688 L 118.691406 169.347656 C 129.726562 165.742188 139.59375 159.617188 147.660156 151.660156 L 145.890625 147.035156 C 145.558594 146.132812 145.558594 145.113281 145.648438 143.910156 C 135.632812 162.019531 112.964844 157.605469 112.964844 157.605469 C 114.015625 158.265625 114.824219 159.257812 115.246094 160.429688 Z M 115.246094 160.429688 " fill-opacity="1" fill-rule="nonzero"/></svg>