<svg xmlns="http://www.w3.org/2000/svg" xmlns:xlink="http://www.w3.org/1999/xlink" width="256" zoomAndPan="magnify" viewBox="0 0 192 191.999996" height="256" preserveAspectRatio="xMidYMid meet" version="1.0"><defs><clipPath id="4d50364116"><path d="M 19.199219 29.253906 L 90 29.253906 L 90 162.753906 L 19.199219 162.753906 Z M 19.199219 29.253906 " clip-rule="nonzero"/></clipPath><clipPath id="b916a61b1c"><path d="M 134 29.253906 L 172.949219 29.253906 L 172.949219 162.753906 L 134 162.753906 Z M 134 29.253906 " clip-rule="nonzero"/></clipPath></defs><g clip-path="url(#4d50364116)"><path fill="#000000" d="M 85.199219 30.347656 C 84.574219 30.109375 83.925781 29.96875 83.257812 29.925781 C 82.589844 29.882812 81.929688 29.9375 81.28125 30.09375 C 80.628906 30.25 80.015625 30.5 79.441406 30.84375 C 78.863281 31.1875 78.351562 31.605469 77.90625 32.101562 L 50.019531 63.042969 L 26.445312 63.042969 C 26.011719 63.042969 25.578125 63.085938 25.152344 63.171875 C 24.726562 63.253906 24.3125 63.378906 23.910156 63.546875 C 23.507812 63.714844 23.125 63.917969 22.761719 64.160156 C 22.398438 64.402344 22.066406 64.675781 21.757812 64.984375 C 21.449219 65.292969 21.175781 65.625 20.933594 65.988281 C 20.691406 66.347656 20.488281 66.730469 20.320312 67.132812 C 20.152344 67.535156 20.027344 67.949219 19.941406 68.375 C 19.859375 68.800781 19.816406 69.234375 19.816406 69.667969 L 19.816406 125.984375 C 19.816406 126.417969 19.859375 126.847656 19.941406 127.277344 C 20.027344 127.703125 20.152344 128.117188 20.320312 128.519531 C 20.488281 128.921875 20.691406 129.300781 20.933594 129.664062 C 21.175781 130.027344 21.449219 130.359375 21.757812 130.667969 C 22.066406 130.976562 22.398438 131.25 22.761719 131.492188 C 23.125 131.734375 23.507812 131.9375 23.910156 132.105469 C 24.3125 132.269531 24.726562 132.394531 25.152344 132.480469 C 25.578125 132.566406 26.011719 132.609375 26.445312 132.609375 L 50.21875 132.609375 L 78.105469 160.46875 C 78.566406 160.933594 79.085938 161.324219 79.667969 161.632812 C 80.246094 161.945312 80.855469 162.167969 81.5 162.296875 C 82.144531 162.425781 82.792969 162.460938 83.449219 162.398438 C 84.101562 162.335938 84.734375 162.179688 85.339844 161.925781 C 85.949219 161.675781 86.503906 161.34375 87.015625 160.929688 C 87.523438 160.511719 87.960938 160.03125 88.324219 159.484375 C 88.691406 158.941406 88.96875 158.351562 89.160156 157.722656 C 89.347656 157.097656 89.445312 156.453125 89.445312 155.796875 L 89.445312 36.542969 C 89.445312 35.871094 89.347656 35.214844 89.148438 34.574219 C 88.953125 33.933594 88.664062 33.339844 88.285156 32.785156 C 87.90625 32.234375 87.453125 31.75 86.925781 31.332031 C 86.402344 30.917969 85.824219 30.589844 85.199219 30.347656 Z M 76.179688 139.796875 L 57.648438 121.28125 C 57.023438 120.664062 56.308594 120.1875 55.5 119.855469 C 54.691406 119.523438 53.847656 119.355469 52.972656 119.359375 L 33.078125 119.359375 L 33.078125 76.292969 L 52.972656 76.292969 C 53.914062 76.296875 54.8125 76.105469 55.675781 75.726562 C 56.535156 75.34375 57.28125 74.804688 57.910156 74.105469 L 76.179688 53.800781 L 76.179688 139.929688 Z M 76.179688 139.796875 " fill-opacity="1" fill-rule="nonzero"/></g><path fill="#000000" d="M 127.707031 49.792969 C 127.398438 49.484375 127.0625 49.210938 126.699219 48.96875 C 126.335938 48.730469 125.953125 48.527344 125.546875 48.359375 C 125.144531 48.195312 124.730469 48.070312 124.300781 47.988281 C 123.875 47.902344 123.441406 47.863281 123.007812 47.863281 C 122.570312 47.863281 122.140625 47.90625 121.710938 47.996094 C 121.285156 48.082031 120.871094 48.207031 120.46875 48.375 C 120.066406 48.542969 119.683594 48.75 119.320312 48.992188 C 118.960938 49.234375 118.625 49.511719 118.320312 49.820312 C 118.011719 50.128906 117.738281 50.464844 117.496094 50.828125 C 117.253906 51.191406 117.054688 51.574219 116.886719 51.976562 C 116.722656 52.382812 116.597656 52.796875 116.515625 53.222656 C 116.429688 53.652344 116.390625 54.082031 116.390625 54.519531 C 116.394531 54.953125 116.4375 55.386719 116.523438 55.8125 C 116.613281 56.238281 116.738281 56.652344 116.90625 57.054688 C 117.078125 57.457031 117.28125 57.835938 117.527344 58.199219 C 117.769531 58.558594 118.046875 58.894531 118.355469 59.199219 C 119.582031 60.410156 120.742188 61.679688 121.839844 63.007812 C 122.941406 64.332031 123.96875 65.710938 124.933594 67.136719 C 125.894531 68.566406 126.785156 70.039062 127.601562 71.554688 C 128.417969 73.070312 129.160156 74.621094 129.820312 76.210938 C 130.484375 77.800781 131.066406 79.417969 131.570312 81.0625 C 132.074219 82.710938 132.496094 84.375 132.832031 86.066406 C 133.171875 87.753906 133.425781 89.453125 133.59375 91.167969 C 133.765625 92.878906 133.851562 94.597656 133.851562 96.320312 C 133.851562 98.039062 133.765625 99.757812 133.59375 101.46875 C 133.425781 103.183594 133.171875 104.882812 132.832031 106.570312 C 132.496094 108.261719 132.074219 109.925781 131.570312 111.574219 C 131.066406 113.21875 130.484375 114.839844 129.820312 116.425781 C 129.160156 118.015625 128.417969 119.566406 127.601562 121.085938 C 126.785156 122.601562 125.894531 124.070312 124.933594 125.5 C 123.96875 126.925781 122.941406 128.304688 121.839844 129.628906 C 120.742188 130.957031 119.582031 132.226562 118.355469 133.4375 C 117.960938 133.71875 117.605469 134.039062 117.28125 134.402344 C 116.960938 134.761719 116.679688 135.152344 116.441406 135.574219 C 116.207031 135.996094 116.015625 136.441406 115.875 136.902344 C 115.738281 137.367188 115.648438 137.839844 115.613281 138.320312 C 115.574219 138.804688 115.59375 139.285156 115.660156 139.765625 C 115.730469 140.242188 115.851562 140.707031 116.023438 141.160156 C 116.195312 141.613281 116.410156 142.042969 116.675781 142.445312 C 116.941406 142.851562 117.25 143.222656 117.59375 143.5625 C 117.941406 143.898438 118.320312 144.195312 118.734375 144.449219 C 119.144531 144.703125 119.578125 144.910156 120.035156 145.070312 C 120.492188 145.230469 120.960938 145.339844 121.445312 145.398438 C 121.925781 145.453125 122.40625 145.457031 122.886719 145.410156 C 123.371094 145.363281 123.839844 145.261719 124.300781 145.109375 C 124.761719 144.957031 125.199219 144.757812 125.613281 144.511719 C 126.03125 144.265625 126.414062 143.976562 126.769531 143.644531 C 127.121094 143.3125 127.433594 142.945312 127.707031 142.546875 C 128.46875 141.789062 129.210938 141.011719 129.933594 140.21875 C 130.65625 139.421875 131.359375 138.609375 132.039062 137.78125 C 132.722656 136.953125 133.386719 136.105469 134.027344 135.246094 C 134.667969 134.382812 135.289062 133.507812 135.886719 132.613281 C 136.484375 131.722656 137.058594 130.816406 137.613281 129.894531 C 138.167969 128.976562 138.699219 128.042969 139.207031 127.09375 C 139.710938 126.148438 140.195312 125.191406 140.65625 124.21875 C 141.117188 123.25 141.554688 122.269531 141.964844 121.277344 C 142.378906 120.285156 142.765625 119.28125 143.128906 118.273438 C 143.492188 117.261719 143.828125 116.242188 144.140625 115.214844 C 144.453125 114.1875 144.738281 113.152344 145 112.113281 C 145.261719 111.070312 145.5 110.023438 145.710938 108.96875 C 145.917969 107.917969 146.101562 106.859375 146.261719 105.796875 C 146.417969 104.734375 146.550781 103.667969 146.65625 102.601562 C 146.761719 101.53125 146.839844 100.460938 146.894531 99.390625 C 146.945312 98.316406 146.972656 97.242188 146.972656 96.167969 C 146.972656 95.09375 146.945312 94.023438 146.894531 92.949219 C 146.839844 91.878906 146.761719 90.808594 146.65625 89.738281 C 146.550781 88.667969 146.417969 87.605469 146.261719 86.542969 C 146.101562 85.480469 145.917969 84.421875 145.710938 83.371094 C 145.5 82.316406 145.261719 81.269531 145 80.226562 C 144.738281 79.1875 144.453125 78.152344 144.140625 77.125 C 143.828125 76.097656 143.492188 75.078125 143.128906 74.066406 C 142.765625 73.054688 142.378906 72.054688 141.964844 71.0625 C 141.554688 70.070312 141.117188 69.089844 140.65625 68.121094 C 140.195312 67.148438 139.710938 66.191406 139.207031 65.246094 C 138.699219 64.296875 138.167969 63.363281 137.613281 62.445312 C 137.058594 61.523438 136.484375 60.617188 135.886719 59.722656 C 135.289062 58.832031 134.667969 57.957031 134.027344 57.09375 C 133.386719 56.230469 132.722656 55.386719 132.039062 54.558594 C 131.359375 53.726562 130.65625 52.917969 129.933594 52.121094 C 129.210938 51.328125 128.46875 50.550781 127.707031 49.792969 Z M 127.707031 49.792969 " fill-opacity="1" fill-rule="nonzero"/><g clip-path="url(#b916a61b1c)"><path fill="#000000" d="M 145.542969 31.96875 C 145.242188 31.636719 144.910156 31.339844 144.546875 31.074219 C 144.183594 30.8125 143.796875 30.585938 143.390625 30.398438 C 142.980469 30.214844 142.558594 30.070312 142.121094 29.96875 C 141.683594 29.871094 141.238281 29.8125 140.789062 29.804688 C 140.339844 29.792969 139.894531 29.828125 139.453125 29.910156 C 139.011719 29.988281 138.582031 30.113281 138.164062 30.28125 C 137.75 30.449219 137.351562 30.65625 136.976562 30.902344 C 136.605469 31.152344 136.257812 31.433594 135.941406 31.75 C 135.625 32.070312 135.34375 32.414062 135.09375 32.789062 C 134.847656 33.164062 134.644531 33.5625 134.476562 33.980469 C 134.3125 34.394531 134.1875 34.824219 134.109375 35.265625 C 134.03125 35.707031 133.996094 36.152344 134.007812 36.601562 C 134.019531 37.050781 134.078125 37.492188 134.179688 37.929688 C 134.28125 38.367188 134.425781 38.789062 134.613281 39.199219 C 134.800781 39.605469 135.027344 39.988281 135.296875 40.351562 C 135.5625 40.714844 135.859375 41.042969 136.195312 41.34375 C 137.097656 42.238281 137.976562 43.15625 138.835938 44.09375 C 139.695312 45.03125 140.527344 45.988281 141.339844 46.964844 C 142.148438 47.945312 142.933594 48.941406 143.695312 49.960938 C 144.457031 50.976562 145.191406 52.011719 145.902344 53.066406 C 146.613281 54.121094 147.296875 55.191406 147.953125 56.277344 C 148.609375 57.363281 149.238281 58.46875 149.84375 59.585938 C 150.445312 60.703125 151.019531 61.835938 151.566406 62.984375 C 152.113281 64.128906 152.628906 65.289062 153.121094 66.460938 C 153.609375 67.632812 154.070312 68.816406 154.5 70.011719 C 154.929688 71.207031 155.332031 72.414062 155.703125 73.628906 C 156.074219 74.84375 156.414062 76.066406 156.726562 77.296875 C 157.035156 78.53125 157.316406 79.769531 157.566406 81.011719 C 157.816406 82.257812 158.035156 83.507812 158.222656 84.765625 C 158.410156 86.023438 158.566406 87.28125 158.691406 88.546875 C 158.816406 89.808594 158.910156 91.078125 158.972656 92.34375 C 159.035156 93.613281 159.066406 94.882812 159.066406 96.152344 C 159.066406 97.421875 159.035156 98.691406 158.972656 99.960938 C 158.910156 101.230469 158.816406 102.496094 158.691406 103.761719 C 158.566406 105.023438 158.410156 106.285156 158.222656 107.539062 C 158.035156 108.796875 157.816406 110.046875 157.566406 111.292969 C 157.316406 112.539062 157.035156 113.777344 156.726562 115.007812 C 156.414062 116.238281 156.074219 117.464844 155.703125 118.675781 C 155.332031 119.890625 154.929688 121.097656 154.5 122.292969 C 154.070312 123.488281 153.609375 124.671875 153.121094 125.84375 C 152.628906 127.015625 152.113281 128.175781 151.566406 129.320312 C 151.019531 130.46875 150.445312 131.601562 149.84375 132.71875 C 149.238281 133.839844 148.609375 134.941406 147.953125 136.027344 C 147.296875 137.117188 146.613281 138.1875 145.902344 139.238281 C 145.191406 140.292969 144.457031 141.328125 143.695312 142.347656 C 142.933594 143.363281 142.148438 144.363281 141.339844 145.339844 C 140.527344 146.320312 139.695312 147.277344 138.835938 148.214844 C 137.976562 149.152344 137.097656 150.066406 136.195312 150.960938 C 135.886719 151.265625 135.609375 151.601562 135.367188 151.960938 C 135.121094 152.324219 134.917969 152.703125 134.75 153.105469 C 134.582031 153.507812 134.453125 153.921875 134.367188 154.347656 C 134.28125 154.773438 134.234375 155.207031 134.234375 155.640625 C 134.234375 156.078125 134.273438 156.507812 134.355469 156.933594 C 134.441406 157.363281 134.566406 157.777344 134.730469 158.179688 C 134.894531 158.582031 135.097656 158.964844 135.339844 159.328125 C 135.582031 159.691406 135.855469 160.027344 136.160156 160.335938 C 136.46875 160.644531 136.800781 160.921875 137.164062 161.164062 C 137.523438 161.40625 137.90625 161.613281 138.308594 161.78125 C 138.710938 161.949219 139.125 162.074219 139.550781 162.160156 C 139.980469 162.25 140.410156 162.292969 140.847656 162.292969 C 141.28125 162.296875 141.714844 162.253906 142.140625 162.171875 C 142.570312 162.085938 142.984375 161.964844 143.386719 161.796875 C 143.789062 161.632812 144.171875 161.429688 144.535156 161.191406 C 144.898438 160.949219 145.234375 160.675781 145.542969 160.367188 C 146.601562 159.320312 147.632812 158.25 148.636719 157.148438 C 149.640625 156.050781 150.617188 154.929688 151.566406 153.785156 C 152.515625 152.636719 153.4375 151.46875 154.328125 150.277344 C 155.21875 149.085938 156.078125 147.871094 156.910156 146.636719 C 157.742188 145.402344 158.542969 144.148438 159.3125 142.875 C 160.082031 141.601562 160.816406 140.308594 161.523438 139 C 162.230469 137.691406 162.902344 136.363281 163.542969 135.019531 C 164.179688 133.675781 164.789062 132.316406 165.359375 130.945312 C 165.933594 129.570312 166.472656 128.183594 166.976562 126.785156 C 167.480469 125.386719 167.949219 123.976562 168.382812 122.550781 C 168.820312 121.128906 169.21875 119.695312 169.582031 118.253906 C 169.945312 116.8125 170.273438 115.359375 170.566406 113.902344 C 170.859375 112.441406 171.113281 110.976562 171.332031 109.507812 C 171.554688 108.035156 171.734375 106.558594 171.882812 105.078125 C 172.03125 103.597656 172.140625 102.117188 172.214844 100.628906 C 172.285156 99.144531 172.324219 97.65625 172.324219 96.167969 C 172.324219 94.683594 172.285156 93.195312 172.214844 91.710938 C 172.140625 90.222656 172.03125 88.742188 171.882812 87.261719 C 171.734375 85.78125 171.554688 84.304688 171.332031 82.832031 C 171.113281 81.359375 170.859375 79.894531 170.566406 78.4375 C 170.273438 76.976562 169.945312 75.527344 169.582031 74.085938 C 169.21875 72.644531 168.820312 71.210938 168.382812 69.789062 C 167.949219 68.363281 167.480469 66.953125 166.976562 65.554688 C 166.472656 64.152344 165.933594 62.765625 165.359375 61.394531 C 164.789062 60.019531 164.179688 58.664062 163.542969 57.320312 C 162.902344 55.976562 162.230469 54.648438 161.523438 53.339844 C 160.816406 52.027344 160.082031 50.738281 159.3125 49.464844 C 158.542969 48.191406 157.742188 46.9375 156.910156 45.703125 C 156.078125 44.46875 155.21875 43.253906 154.328125 42.0625 C 153.4375 40.871094 152.515625 39.703125 151.566406 38.554688 C 150.617188 37.410156 149.640625 36.285156 148.636719 35.1875 C 147.632812 34.089844 146.601562 33.015625 145.542969 31.96875 Z M 145.542969 31.96875 " fill-opacity="1" fill-rule="nonzero"/></g><path fill="#000000" d="M 109.007812 68.210938 C 108.695312 67.902344 108.359375 67.628906 107.996094 67.390625 C 107.632812 67.148438 107.25 66.945312 106.847656 66.78125 C 106.445312 66.617188 106.03125 66.492188 105.601562 66.410156 C 105.175781 66.324219 104.742188 66.285156 104.308594 66.285156 C 103.871094 66.289062 103.441406 66.332031 103.011719 66.417969 C 102.585938 66.503906 102.171875 66.632812 101.769531 66.800781 C 101.367188 66.96875 100.988281 67.171875 100.625 67.414062 C 100.265625 67.660156 99.929688 67.933594 99.621094 68.242188 C 99.316406 68.550781 99.042969 68.886719 98.800781 69.25 C 98.558594 69.613281 98.355469 69.996094 98.191406 70.398438 C 98.027344 70.800781 97.902344 71.21875 97.820312 71.644531 C 97.734375 72.070312 97.695312 72.503906 97.695312 72.9375 C 97.699219 73.375 97.742188 73.804688 97.828125 74.230469 C 97.914062 74.65625 98.042969 75.070312 98.210938 75.472656 C 98.378906 75.875 98.582031 76.257812 98.828125 76.617188 C 99.070312 76.976562 99.347656 77.3125 99.65625 77.617188 C 100.269531 78.226562 100.847656 78.859375 101.398438 79.523438 C 101.949219 80.1875 102.464844 80.875 102.945312 81.589844 C 103.425781 82.304688 103.871094 83.039062 104.28125 83.796875 C 104.6875 84.554688 105.058594 85.332031 105.390625 86.128906 C 105.722656 86.921875 106.011719 87.730469 106.265625 88.554688 C 106.515625 89.378906 106.726562 90.210938 106.894531 91.058594 C 107.066406 91.902344 107.191406 92.753906 107.277344 93.609375 C 107.363281 94.464844 107.40625 95.324219 107.40625 96.1875 C 107.40625 97.046875 107.363281 97.90625 107.277344 98.761719 C 107.191406 99.621094 107.066406 100.46875 106.894531 101.316406 C 106.726562 102.160156 106.515625 102.992188 106.265625 103.816406 C 106.011719 104.640625 105.722656 105.449219 105.390625 106.246094 C 105.058594 107.039062 104.6875 107.816406 104.28125 108.574219 C 103.871094 109.332031 103.425781 110.070312 102.945312 110.78125 C 102.464844 111.496094 101.949219 112.1875 101.398438 112.847656 C 100.847656 113.511719 100.269531 114.148438 99.65625 114.753906 C 99.347656 115.058594 99.070312 115.394531 98.828125 115.753906 C 98.582031 116.117188 98.378906 116.496094 98.207031 116.898438 C 98.039062 117.300781 97.914062 117.714844 97.824219 118.140625 C 97.738281 118.566406 97.695312 119 97.695312 119.433594 C 97.691406 119.871094 97.734375 120.300781 97.816406 120.730469 C 97.898438 121.15625 98.023438 121.570312 98.1875 121.972656 C 98.355469 122.378906 98.558594 122.761719 98.796875 123.121094 C 99.039062 123.484375 99.3125 123.820312 99.621094 124.128906 C 99.925781 124.441406 100.261719 124.714844 100.625 124.957031 C 100.984375 125.203125 101.367188 125.40625 101.769531 125.574219 C 102.171875 125.742188 102.585938 125.871094 103.011719 125.957031 C 103.441406 126.042969 103.871094 126.085938 104.308594 126.089844 C 104.742188 126.089844 105.175781 126.050781 105.601562 125.964844 C 106.03125 125.882812 106.445312 125.757812 106.847656 125.59375 C 107.25 125.425781 107.632812 125.222656 107.996094 124.984375 C 108.359375 124.742188 108.695312 124.46875 109.007812 124.160156 C 109.929688 123.25 110.804688 122.292969 111.632812 121.292969 C 112.457031 120.292969 113.234375 119.253906 113.960938 118.179688 C 114.683594 117.101562 115.355469 115.992188 115.96875 114.851562 C 116.585938 113.707031 117.144531 112.539062 117.644531 111.339844 C 118.140625 110.144531 118.582031 108.921875 118.960938 107.683594 C 119.339844 106.441406 119.65625 105.183594 119.910156 103.914062 C 120.167969 102.640625 120.359375 101.359375 120.484375 100.070312 C 120.613281 98.777344 120.675781 97.484375 120.675781 96.1875 C 120.675781 94.890625 120.613281 93.59375 120.484375 92.304688 C 120.359375 91.011719 120.167969 89.730469 119.910156 88.457031 C 119.65625 87.1875 119.339844 85.929688 118.960938 84.6875 C 118.582031 83.449219 118.140625 82.230469 117.644531 81.03125 C 117.144531 79.835938 116.585938 78.664062 115.96875 77.523438 C 115.355469 76.378906 114.683594 75.269531 113.960938 74.195312 C 113.234375 73.117188 112.457031 72.078125 111.632812 71.078125 C 110.804688 70.082031 109.929688 69.125 109.007812 68.210938 Z M 109.007812 68.210938 " fill-opacity="1" fill-rule="nonzero"/></svg>